<svg xmlns="http://www.w3.org/2000/svg" xmlns:xlink="http://www.w3.org/1999/xlink" width="500" zoomAndPan="magnify" viewBox="0 0 375 374.999991" height="500" preserveAspectRatio="xMidYMid meet" version="1.0"><defs><clipPath id="79a0dd725d"><path d="M 0 23.164062 L 375 23.164062 L 375 351.664062 L 0 351.664062 Z M 0 23.164062 " clip-rule="nonzero"/></clipPath><clipPath id="fd0051f29f"><path d="M 96 169 L 279 169 L 279 275.625 L 96 275.625 Z M 96 169 " clip-rule="nonzero"/></clipPath><clipPath id="8298507715"><path d="M 95.703125 165 L 279.453125 165 L 279.453125 275.625 L 95.703125 275.625 Z M 95.703125 165 " clip-rule="nonzero"/></clipPath><clipPath id="15c7d4d9f8"><path d="M 177 261 L 194 261 L 194 275.625 L 177 275.625 Z M 177 261 " clip-rule="nonzero"/></clipPath><clipPath id="218ad00c54"><path d="M 95.703125 178 L 110 178 L 110 194 L 95.703125 194 Z M 95.703125 178 " clip-rule="nonzero"/></clipPath><clipPath id="24b7b434ec"><path d="M 181 262 L 198 262 L 198 275.625 L 181 275.625 Z M 181 262 " clip-rule="nonzero"/></clipPath><clipPath id="0f2f71aa50"><path d="M 265 178 L 279.453125 178 L 279.453125 194 L 265 194 Z M 265 178 " clip-rule="nonzero"/></clipPath><clipPath id="986201f11d"><path d="M 170 102 L 279.453125 102 L 279.453125 257 L 170 257 Z M 170 102 " clip-rule="nonzero"/></clipPath><clipPath id="768c5a3dbe"><path d="M 95.703125 102 L 205 102 L 205 257 L 95.703125 257 Z M 95.703125 102 " clip-rule="nonzero"/></clipPath><clipPath id="c13d6ebc7d"><path d="M 171 99.375 L 203 99.375 L 203 131 L 171 131 Z M 171 99.375 " clip-rule="nonzero"/></clipPath><clipPath id="4aa72881c0"><path d="M 164 99.375 L 210 99.375 L 210 138 L 164 138 Z M 164 99.375 " clip-rule="nonzero"/></clipPath><clipPath id="056f0642e6"><path d="M 165 99.375 L 209 99.375 L 209 137 L 165 137 Z M 165 99.375 " clip-rule="nonzero"/></clipPath></defs><rect x="-37.5" width="450" fill="#ffffff" y="-37.499999" height="449.999989" fill-opacity="1"/><rect x="-37.5" width="450" fill="#ffffff" y="-37.499999" height="449.999989" fill-opacity="1"/><rect x="-37.5" width="450" fill="#ffffff" y="-37.499999" height="449.999989" fill-opacity="1"/><g clip-path="url(#79a0dd725d)"><path fill="#2c4b68" d="M 280.683594 23.164062 L 94.316406 23.164062 L 0.00390625 187.414062 L 94.316406 351.664062 L 280.683594 351.664062 L 374.996094 187.414062 L 280.683594 23.164062 M 275.550781 342.765625 L 99.449219 342.765625 L 10.265625 187.414062 L 99.449219 32.0625 L 275.550781 32.0625 L 364.734375 187.414062 L 275.550781 342.765625 " fill-opacity="1" fill-rule="nonzero"/></g><g clip-path="url(#fd0051f29f)"><path fill="#ffffff" d="M 96.171875 183.898438 L 110.46875 169.613281 L 187.515625 246.589844 L 264.511719 169.664062 L 278.757812 183.894531 L 187.460938 275.109375 L 96.167969 183.894531 Z M 96.171875 183.898438 " fill-opacity="1" fill-rule="nonzero"/></g><g clip-path="url(#8298507715)"><path stroke-linecap="butt" transform="matrix(0.372718, 0, 0, 0.372385, 94.658641, 95.203477)" fill="none" stroke-linejoin="miter" d="M 4.059996 238.180589 L 42.418406 199.819369 L 249.134601 406.531485 L 455.71455 199.955736 L 493.936714 238.170099 L 248.987875 483.117559 L 4.049516 238.170099 Z M 4.059996 238.180589 " stroke="#000000" stroke-width="2" stroke-opacity="1" stroke-miterlimit="4"/></g><path stroke-linecap="butt" transform="matrix(0.559599, 0, 0, 0.559099, 47.934695, 48.457948)" fill-opacity="1" fill="#ffffff" fill-rule="nonzero" stroke-linejoin="miter" d="M 100.71189 255.138053 L 110.428669 245.426563 " stroke="#000000" stroke-width="2" stroke-opacity="1" stroke-miterlimit="4"/><path stroke-linecap="butt" transform="matrix(0.559599, 0, 0, 0.559099, 47.934695, 48.457948)" fill-opacity="1" fill="#ffffff" fill-rule="nonzero" stroke-linejoin="miter" d="M 114.288855 268.720165 L 124.005634 259.001688 " stroke="#000000" stroke-width="2" stroke-opacity="1" stroke-miterlimit="4"/><path stroke-linecap="butt" transform="matrix(0.559599, 0, 0, 0.559099, 47.934695, 48.457948)" fill-opacity="1" fill="#ffffff" fill-rule="nonzero" stroke-linejoin="miter" d="M 127.879781 282.302276 L 137.59656 272.5838 " stroke="#000000" stroke-width="2" stroke-opacity="1" stroke-miterlimit="4"/><path stroke-linecap="butt" transform="matrix(0.559599, 0, 0, 0.559099, 47.934695, 48.457948)" fill-opacity="1" fill="#ffffff" fill-rule="nonzero" stroke-linejoin="miter" d="M 141.456746 295.891375 L 151.173525 286.172899 " stroke="#000000" stroke-width="2" stroke-opacity="1" stroke-miterlimit="4"/><path stroke-linecap="butt" transform="matrix(0.559599, 0, 0, 0.559099, 47.934695, 48.457948)" fill-opacity="1" fill="#ffffff" fill-rule="nonzero" stroke-linejoin="miter" d="M 155.040691 309.473487 L 164.75747 299.755011 " stroke="#000000" stroke-width="2" stroke-opacity="1" stroke-miterlimit="4"/><path stroke-linecap="butt" transform="matrix(0.559599, 0, 0, 0.559099, 47.934695, 48.457948)" fill-opacity="1" fill="#ffffff" fill-rule="nonzero" stroke-linejoin="miter" d="M 168.631617 323.048612 L 178.348396 313.337123 " stroke="#000000" stroke-width="2" stroke-opacity="1" stroke-miterlimit="4"/><path stroke-linecap="butt" transform="matrix(0.559599, 0, 0, 0.559099, 47.934695, 48.457948)" fill-opacity="1" fill="#ffffff" fill-rule="nonzero" stroke-linejoin="miter" d="M 182.208582 336.637711 L 191.925362 326.926221 " stroke="#000000" stroke-width="2" stroke-opacity="1" stroke-miterlimit="4"/><path stroke-linecap="butt" transform="matrix(0.559599, 0, 0, 0.559099, 47.934695, 48.457948)" fill-opacity="1" fill="#ffffff" fill-rule="nonzero" stroke-linejoin="miter" d="M 195.792528 350.219823 L 205.502327 340.501346 " stroke="#000000" stroke-width="2" stroke-opacity="1" stroke-miterlimit="4"/><path stroke-linecap="butt" transform="matrix(0.559599, 0, 0, 0.559099, 47.934695, 48.457948)" fill-opacity="1" fill="#ffffff" fill-rule="nonzero" stroke-linejoin="miter" d="M 209.383454 363.808921 L 219.093253 354.097432 " stroke="#000000" stroke-width="2" stroke-opacity="1" stroke-miterlimit="4"/><path stroke-linecap="butt" transform="matrix(0.559599, 0, 0, 0.559099, 47.934695, 48.457948)" fill-opacity="1" fill="#ffffff" fill-rule="nonzero" stroke-linejoin="miter" d="M 222.960419 377.391033 L 232.677198 367.672557 " stroke="#000000" stroke-width="2" stroke-opacity="1" stroke-miterlimit="4"/><path stroke-linecap="butt" transform="matrix(0.559599, 0, 0, 0.559099, 47.934695, 48.457948)" fill-opacity="1" fill="#ffffff" fill-rule="nonzero" stroke-linejoin="miter" d="M 236.537384 390.973145 L 246.254163 381.254669 " stroke="#000000" stroke-width="2" stroke-opacity="1" stroke-miterlimit="4"/><path stroke-linecap="butt" transform="matrix(0.559599, 0, 0, 0.559099, 47.934695, 48.457948)" fill-opacity="1" fill="#ffffff" fill-rule="nonzero" stroke-linejoin="miter" d="M 107.392175 261.901162 L 112.285467 257.003497 " stroke="#000000" stroke-width="2" stroke-opacity="1" stroke-miterlimit="4"/><path stroke-linecap="butt" transform="matrix(0.559599, 0, 0, 0.559099, 47.934695, 48.457948)" fill-opacity="1" fill="#ffffff" fill-rule="nonzero" stroke-linejoin="miter" d="M 120.990082 275.497247 L 125.883373 270.606569 " stroke="#000000" stroke-width="2" stroke-opacity="1" stroke-miterlimit="4"/><path stroke-linecap="butt" transform="matrix(0.559599, 0, 0, 0.559099, 47.934695, 48.457948)" fill-opacity="1" fill="#ffffff" fill-rule="nonzero" stroke-linejoin="miter" d="M 134.581008 289.100319 L 139.474299 284.209641 " stroke="#000000" stroke-width="2" stroke-opacity="1" stroke-miterlimit="4"/><path stroke-linecap="butt" transform="matrix(0.559599, 0, 0, 0.559099, 47.934695, 48.457948)" fill-opacity="1" fill="#ffffff" fill-rule="nonzero" stroke-linejoin="miter" d="M 148.178914 302.703391 L 153.072206 297.805726 " stroke="#000000" stroke-width="2" stroke-opacity="1" stroke-miterlimit="4"/><path stroke-linecap="butt" transform="matrix(0.559599, 0, 0, 0.559099, 47.934695, 48.457948)" fill-opacity="1" fill="#ffffff" fill-rule="nonzero" stroke-linejoin="miter" d="M 161.776821 316.299476 L 166.670112 311.408798 " stroke="#000000" stroke-width="2" stroke-opacity="1" stroke-miterlimit="4"/><path stroke-linecap="butt" transform="matrix(0.559599, 0, 0, 0.559099, 47.934695, 48.457948)" fill-opacity="1" fill="#ffffff" fill-rule="nonzero" stroke-linejoin="miter" d="M 175.381707 329.902548 L 180.274999 325.004883 " stroke="#000000" stroke-width="2" stroke-opacity="1" stroke-miterlimit="4"/><path stroke-linecap="butt" transform="matrix(0.559599, 0, 0, 0.559099, 47.934695, 48.457948)" fill-opacity="1" fill="#ffffff" fill-rule="nonzero" stroke-linejoin="miter" d="M 188.979614 343.498633 L 193.872906 338.607955 " stroke="#000000" stroke-width="2" stroke-opacity="1" stroke-miterlimit="4"/><path stroke-linecap="butt" transform="matrix(0.559599, 0, 0, 0.559099, 47.934695, 48.457948)" fill-opacity="1" fill="#ffffff" fill-rule="nonzero" stroke-linejoin="miter" d="M 202.57752 357.101705 L 207.470812 352.204041 " stroke="#000000" stroke-width="2" stroke-opacity="1" stroke-miterlimit="4"/><path stroke-linecap="butt" transform="matrix(0.559599, 0, 0, 0.559099, 47.934695, 48.457948)" fill-opacity="1" fill="#ffffff" fill-rule="nonzero" stroke-linejoin="miter" d="M 216.182407 370.690804 L 221.075699 365.800126 " stroke="#000000" stroke-width="2" stroke-opacity="1" stroke-miterlimit="4"/><path stroke-linecap="butt" transform="matrix(0.559599, 0, 0, 0.559099, 47.934695, 48.457948)" fill-opacity="1" fill="#ffffff" fill-rule="nonzero" stroke-linejoin="miter" d="M 229.780314 384.286889 L 234.673605 379.396211 " stroke="#000000" stroke-width="2" stroke-opacity="1" stroke-miterlimit="4"/><path fill="#ffffff" d="M 184.128906 270.917969 L 186.867188 268.183594 " fill-opacity="1" fill-rule="nonzero"/><g clip-path="url(#15c7d4d9f8)"><path stroke-linecap="butt" transform="matrix(0.559599, 0, 0, 0.559099, 47.934695, 48.457948)" fill="none" stroke-linejoin="miter" d="M 243.37822 397.889961 L 248.271512 392.999283 " stroke="#000000" stroke-width="2" stroke-opacity="1" stroke-miterlimit="4"/></g><path fill="#ffffff" d="M 100.417969 187.28125 L 103.15625 184.546875 " fill-opacity="1" fill-rule="nonzero"/><g clip-path="url(#218ad00c54)"><path stroke-linecap="butt" transform="matrix(0.559599, 0, 0, 0.559099, 47.934695, 48.457948)" fill="none" stroke-linejoin="miter" d="M 93.787288 248.29809 L 98.68058 243.407412 " stroke="#000000" stroke-width="2" stroke-opacity="1" stroke-miterlimit="4"/></g><path stroke-linecap="butt" transform="matrix(0.559599, 0, 0, 0.559099, 47.934695, 48.457948)" fill-opacity="1" fill="#ffffff" fill-rule="nonzero" stroke-linejoin="miter" d="M 397.918287 255.508347 L 388.201508 245.796857 " stroke="#000000" stroke-width="2" stroke-opacity="1" stroke-miterlimit="4"/><path stroke-linecap="butt" transform="matrix(0.559599, 0, 0, 0.559099, 47.934695, 48.457948)" fill-opacity="1" fill="#ffffff" fill-rule="nonzero" stroke-linejoin="miter" d="M 384.341322 269.090459 L 374.624543 259.371983 " stroke="#000000" stroke-width="2" stroke-opacity="1" stroke-miterlimit="4"/><path stroke-linecap="butt" transform="matrix(0.559599, 0, 0, 0.559099, 47.934695, 48.457948)" fill-opacity="1" fill="#ffffff" fill-rule="nonzero" stroke-linejoin="miter" d="M 370.750396 282.679557 L 361.033617 272.961081 " stroke="#000000" stroke-width="2" stroke-opacity="1" stroke-miterlimit="4"/><path stroke-linecap="butt" transform="matrix(0.559599, 0, 0, 0.559099, 47.934695, 48.457948)" fill-opacity="1" fill="#ffffff" fill-rule="nonzero" stroke-linejoin="miter" d="M 357.173431 296.261669 L 347.456652 286.543193 " stroke="#000000" stroke-width="2" stroke-opacity="1" stroke-miterlimit="4"/><path stroke-linecap="butt" transform="matrix(0.559599, 0, 0, 0.559099, 47.934695, 48.457948)" fill-opacity="1" fill="#ffffff" fill-rule="nonzero" stroke-linejoin="miter" d="M 343.582505 309.850768 L 333.865726 300.132292 " stroke="#000000" stroke-width="2" stroke-opacity="1" stroke-miterlimit="4"/><path stroke-linecap="butt" transform="matrix(0.559599, 0, 0, 0.559099, 47.934695, 48.457948)" fill-opacity="1" fill="#ffffff" fill-rule="nonzero" stroke-linejoin="miter" d="M 329.998559 323.43288 L 320.28178 313.714403 " stroke="#000000" stroke-width="2" stroke-opacity="1" stroke-miterlimit="4"/><path stroke-linecap="butt" transform="matrix(0.559599, 0, 0, 0.559099, 47.934695, 48.457948)" fill-opacity="1" fill="#ffffff" fill-rule="nonzero" stroke-linejoin="miter" d="M 316.421594 337.008005 L 306.704815 327.296515 " stroke="#000000" stroke-width="2" stroke-opacity="1" stroke-miterlimit="4"/><path stroke-linecap="butt" transform="matrix(0.559599, 0, 0, 0.559099, 47.934695, 48.457948)" fill-opacity="1" fill="#ffffff" fill-rule="nonzero" stroke-linejoin="miter" d="M 302.830668 350.597103 L 293.113889 340.885614 " stroke="#000000" stroke-width="2" stroke-opacity="1" stroke-miterlimit="4"/><path stroke-linecap="butt" transform="matrix(0.559599, 0, 0, 0.559099, 47.934695, 48.457948)" fill-opacity="1" fill="#ffffff" fill-rule="nonzero" stroke-linejoin="miter" d="M 289.246723 364.179215 L 279.536924 354.467726 " stroke="#000000" stroke-width="2" stroke-opacity="1" stroke-miterlimit="4"/><path stroke-linecap="butt" transform="matrix(0.559599, 0, 0, 0.559099, 47.934695, 48.457948)" fill-opacity="1" fill="#ffffff" fill-rule="nonzero" stroke-linejoin="miter" d="M 275.669758 377.761327 L 265.952978 368.042851 " stroke="#000000" stroke-width="2" stroke-opacity="1" stroke-miterlimit="4"/><path stroke-linecap="butt" transform="matrix(0.559599, 0, 0, 0.559099, 47.934695, 48.457948)" fill-opacity="1" fill="#ffffff" fill-rule="nonzero" stroke-linejoin="miter" d="M 262.078832 391.350426 L 252.362052 381.63195 " stroke="#000000" stroke-width="2" stroke-opacity="1" stroke-miterlimit="4"/><path stroke-linecap="butt" transform="matrix(0.559599, 0, 0, 0.559099, 47.934695, 48.457948)" fill-opacity="1" fill="#ffffff" fill-rule="nonzero" stroke-linejoin="miter" d="M 391.238001 262.278443 L 386.34471 257.387765 " stroke="#000000" stroke-width="2" stroke-opacity="1" stroke-miterlimit="4"/><path stroke-linecap="butt" transform="matrix(0.559599, 0, 0, 0.559099, 47.934695, 48.457948)" fill-opacity="1" fill="#ffffff" fill-rule="nonzero" stroke-linejoin="miter" d="M 377.640095 275.867541 L 372.746803 270.976863 " stroke="#000000" stroke-width="2" stroke-opacity="1" stroke-miterlimit="4"/><path stroke-linecap="butt" transform="matrix(0.559599, 0, 0, 0.559099, 47.934695, 48.457948)" fill-opacity="1" fill="#ffffff" fill-rule="nonzero" stroke-linejoin="miter" d="M 364.042189 289.470613 L 359.148897 284.579935 " stroke="#000000" stroke-width="2" stroke-opacity="1" stroke-miterlimit="4"/><path stroke-linecap="butt" transform="matrix(0.559599, 0, 0, 0.559099, 47.934695, 48.457948)" fill-opacity="1" fill="#ffffff" fill-rule="nonzero" stroke-linejoin="miter" d="M 350.437302 303.066698 L 345.54401 298.17602 " stroke="#000000" stroke-width="2" stroke-opacity="1" stroke-miterlimit="4"/><path stroke-linecap="butt" transform="matrix(0.559599, 0, 0, 0.559099, 47.934695, 48.457948)" fill-opacity="1" fill="#ffffff" fill-rule="nonzero" stroke-linejoin="miter" d="M 336.839395 316.66977 L 331.946103 311.779092 " stroke="#000000" stroke-width="2" stroke-opacity="1" stroke-miterlimit="4"/><path stroke-linecap="butt" transform="matrix(0.559599, 0, 0, 0.559099, 47.934695, 48.457948)" fill-opacity="1" fill="#ffffff" fill-rule="nonzero" stroke-linejoin="miter" d="M 323.241489 330.272842 L 318.348197 325.375178 " stroke="#000000" stroke-width="2" stroke-opacity="1" stroke-miterlimit="4"/><path stroke-linecap="butt" transform="matrix(0.559599, 0, 0, 0.559099, 47.934695, 48.457948)" fill-opacity="1" fill="#ffffff" fill-rule="nonzero" stroke-linejoin="miter" d="M 309.650563 343.868928 L 304.757271 338.978249 " stroke="#000000" stroke-width="2" stroke-opacity="1" stroke-miterlimit="4"/><path stroke-linecap="butt" transform="matrix(0.559599, 0, 0, 0.559099, 47.934695, 48.457948)" fill-opacity="1" fill="#ffffff" fill-rule="nonzero" stroke-linejoin="miter" d="M 296.052656 357.472 L 291.159365 352.574335 " stroke="#000000" stroke-width="2" stroke-opacity="1" stroke-miterlimit="4"/><path stroke-linecap="butt" transform="matrix(0.559599, 0, 0, 0.559099, 47.934695, 48.457948)" fill-opacity="1" fill="#ffffff" fill-rule="nonzero" stroke-linejoin="miter" d="M 282.44777 371.068085 L 277.554478 366.177407 " stroke="#000000" stroke-width="2" stroke-opacity="1" stroke-miterlimit="4"/><path stroke-linecap="butt" transform="matrix(0.559599, 0, 0, 0.559099, 47.934695, 48.457948)" fill-opacity="1" fill="#ffffff" fill-rule="nonzero" stroke-linejoin="miter" d="M 268.849863 384.671157 L 263.956571 379.773492 " stroke="#000000" stroke-width="2" stroke-opacity="1" stroke-miterlimit="4"/><path fill="#ffffff" d="M 190.773438 271.128906 L 188.035156 268.394531 " fill-opacity="1" fill-rule="nonzero"/><g clip-path="url(#24b7b434ec)"><path stroke-linecap="butt" transform="matrix(0.559599, 0, 0, 0.559099, 47.934695, 48.457948)" fill="none" stroke-linejoin="miter" d="M 255.251957 398.267242 L 250.358665 393.376564 " stroke="#000000" stroke-width="2" stroke-opacity="1" stroke-miterlimit="4"/></g><path fill="#ffffff" d="M 274.484375 187.496094 L 271.746094 184.757812 " fill-opacity="1" fill-rule="nonzero"/><g clip-path="url(#0f2f71aa50)"><path stroke-linecap="butt" transform="matrix(0.559599, 0, 0, 0.559099, 47.934695, 48.457948)" fill="none" stroke-linejoin="miter" d="M 404.842888 248.682357 L 399.949597 243.784693 " stroke="#000000" stroke-width="2" stroke-opacity="1" stroke-miterlimit="4"/></g><path fill="#ffffff" d="M 193.257812 108.332031 L 176.53125 117.980469 L 203.140625 164.023438 C 222.484375 164.734375 234.425781 206.160156 250.070312 227.226562 C 256.875 222.535156 258.769531 233.359375 275.511719 250.671875 Z M 193.257812 108.332031 " fill-opacity="1" fill-rule="nonzero"/><g clip-path="url(#986201f11d)"><path stroke-linecap="butt" transform="matrix(0.559599, 0, 0, 0.559099, 47.934695, 48.457948)" fill="none" stroke-linejoin="miter" d="M 259.69152 107.090238 L 229.801255 124.347346 L 277.352045 206.699379 C 311.919207 207.970955 333.258427 282.064729 361.215108 319.743911 C 373.375043 311.352905 376.760559 330.713003 406.678745 361.677983 Z M 259.69152 107.090238 " stroke="#000000" stroke-width="2" stroke-opacity="1" stroke-miterlimit="4"/></g><path fill="#ffffff" d="M 181.660156 108.332031 L 198.386719 117.980469 L 171.777344 164.023438 C 152.433594 164.734375 140.492188 206.160156 124.847656 227.226562 C 118.042969 222.535156 116.152344 233.359375 99.40625 250.671875 Z M 181.660156 108.332031 " fill-opacity="1" fill-rule="nonzero"/><g clip-path="url(#768c5a3dbe)"><path stroke-linecap="butt" transform="matrix(0.559599, 0, 0, 0.559099, 47.934695, 48.457948)" fill="none" stroke-linejoin="miter" d="M 238.966579 107.090238 L 268.856844 124.347346 L 221.306054 206.699379 C 186.738891 207.970955 165.399671 282.064729 137.44299 319.743911 C 125.283055 311.352905 121.90452 330.713003 91.979353 361.677983 Z M 238.966579 107.090238 " stroke="#000000" stroke-width="2" stroke-opacity="1" stroke-miterlimit="4"/></g><g clip-path="url(#c13d6ebc7d)"><path fill="#ffffff" d="M 202.445312 115.4375 C 202.449219 123.96875 195.527344 130.882812 186.992188 130.882812 C 178.457031 130.882812 171.535156 123.96875 171.539062 115.4375 C 171.535156 106.910156 178.457031 99.992188 186.992188 99.992188 C 195.527344 99.992188 202.449219 106.910156 202.445312 115.4375 Z M 202.445312 115.4375 " fill-opacity="1" fill-rule="nonzero"/></g><g clip-path="url(#4aa72881c0)"><path stroke-linecap="butt" transform="matrix(0.559599, 0, 0, 0.559099, 47.934695, 48.457948)" fill="none" stroke-linejoin="miter" d="M 276.109526 119.799015 C 276.116506 135.057931 263.747158 147.42436 248.494886 147.42436 C 233.242614 147.42436 220.873266 135.057931 220.880247 119.799015 C 220.873266 104.547086 233.242614 92.17367 248.494886 92.17367 C 263.747158 92.17367 276.116506 104.547086 276.109526 119.799015 Z M 276.109526 119.799015 " stroke="#000000" stroke-width="2.235" stroke-opacity="1" stroke-miterlimit="4"/></g><path fill="#ffffff" d="M 199.453125 115.4375 C 199.453125 122.316406 193.875 127.890625 186.992188 127.890625 C 180.109375 127.890625 174.53125 122.316406 174.53125 115.4375 C 174.53125 108.5625 180.109375 102.984375 186.992188 102.984375 C 193.875 102.984375 199.453125 108.5625 199.453125 115.4375 Z M 199.453125 115.4375 " fill-opacity="1" fill-rule="nonzero"/><g clip-path="url(#056f0642e6)"><path stroke-linecap="butt" transform="matrix(0.559599, 0, 0, 0.559099, 47.934695, 48.457948)" fill="none" stroke-linejoin="miter" d="M 270.762505 119.799015 C 270.762505 132.102564 260.79443 142.072561 248.494886 142.072561 C 236.195342 142.072561 226.227267 132.102564 226.227267 119.799015 C 226.227267 107.502453 236.195342 97.525469 248.494886 97.525469 C 260.79443 97.525469 270.762505 107.502453 270.762505 119.799015 Z M 270.762505 119.799015 " stroke="#000000" stroke-width="2.772" stroke-opacity="1" stroke-miterlimit="4"/></g></svg>