<svg xmlns="http://www.w3.org/2000/svg" xmlns:xlink="http://www.w3.org/1999/xlink" width="500" zoomAndPan="magnify" viewBox="0 0 375 374.999991" height="500" preserveAspectRatio="xMidYMid meet" version="1.0"><defs><clipPath id="013d326558"><path d="M 0 23.164062 L 375 23.164062 L 375 351.664062 L 0 351.664062 Z M 0 23.164062 " clip-rule="nonzero"/></clipPath><clipPath id="e3f6df8324"><path d="M 109.359375 242 L 265.359375 242 L 265.359375 263 L 109.359375 263 Z M 109.359375 242 " clip-rule="nonzero"/></clipPath><clipPath id="97bddac420"><path d="M 109.359375 141 L 124 141 L 124 168 L 109.359375 168 Z M 109.359375 141 " clip-rule="nonzero"/></clipPath><clipPath id="4b12884964"><path d="M 115 274 L 121 274 L 121 280.136719 L 115 280.136719 Z M 115 274 " clip-rule="nonzero"/></clipPath><clipPath id="1d69f85118"><path d="M 132 274 L 139 274 L 139 280.136719 L 132 280.136719 Z M 132 274 " clip-rule="nonzero"/></clipPath><clipPath id="624b641da8"><path d="M 118 277 L 136 277 L 136 280.136719 L 118 280.136719 Z M 118 277 " clip-rule="nonzero"/></clipPath><clipPath id="50fb348b1e"><path d="M 236 274 L 243 274 L 243 280.136719 L 236 280.136719 Z M 236 274 " clip-rule="nonzero"/></clipPath><clipPath id="dee1664595"><path d="M 253 274 L 260 274 L 260 280.136719 L 253 280.136719 Z M 253 274 " clip-rule="nonzero"/></clipPath><clipPath id="770c1a3a49"><path d="M 239 277 L 257 277 L 257 280.136719 L 239 280.136719 Z M 239 277 " clip-rule="nonzero"/></clipPath><clipPath id="9a59015775"><path d="M 126 94.886719 L 139 94.886719 L 139 107 L 126 107 Z M 126 94.886719 " clip-rule="nonzero"/></clipPath><clipPath id="dbe222bcd3"><path d="M 126 94.886719 L 130 94.886719 L 130 104 L 126 104 Z M 126 94.886719 " clip-rule="nonzero"/></clipPath><clipPath id="2fc68639f4"><path d="M 236 94.886719 L 249 94.886719 L 249 107 L 236 107 Z M 236 94.886719 " clip-rule="nonzero"/></clipPath><clipPath id="9a5e604988"><path d="M 245 94.886719 L 249 94.886719 L 249 104 L 245 104 Z M 245 94.886719 " clip-rule="nonzero"/></clipPath><clipPath id="bef02ab1cb"><path d="M 250 141 L 265.359375 141 L 265.359375 168 L 250 168 Z M 250 141 " clip-rule="nonzero"/></clipPath></defs><rect x="-37.5" width="450" fill="#ffffff" y="-37.499999" height="449.999989" fill-opacity="1"/><rect x="-37.5" width="450" fill="#ffffff" y="-37.499999" height="449.999989" fill-opacity="1"/><g clip-path="url(#013d326558)"><path fill="#2c4b68" d="M 280.683594 23.164062 L 94.316406 23.164062 L 0.00390625 187.414062 L 94.316406 351.664062 L 280.683594 351.664062 L 374.996094 187.414062 L 280.683594 23.164062 M 275.550781 342.765625 L 99.449219 342.765625 L 10.265625 187.414062 L 99.449219 32.0625 L 275.550781 32.0625 L 364.734375 187.414062 L 275.550781 342.765625 " fill-opacity="1" fill-rule="nonzero"/></g><g clip-path="url(#e3f6df8324)"><path fill="#000000" d="M 263.890625 262.75 L 110.792969 262.75 C 109.992188 262.75 109.347656 262.101562 109.347656 261.300781 L 109.347656 243.9375 C 109.347656 243.136719 109.992188 242.488281 110.792969 242.488281 L 263.890625 242.488281 C 264.6875 242.488281 265.335938 243.136719 265.335938 243.9375 L 265.335938 261.300781 C 265.335938 262.101562 264.6875 262.75 263.890625 262.75 Z M 112.234375 259.855469 L 262.445312 259.855469 L 262.445312 245.382812 L 112.234375 245.382812 Z M 112.234375 259.855469 " fill-opacity="1" fill-rule="nonzero"/></g><path fill="#000000" d="M 136.789062 277.222656 C 135.992188 277.222656 135.34375 276.574219 135.34375 275.773438 L 135.34375 264.195312 C 135.34375 263.398438 135.992188 262.75 136.789062 262.75 C 137.585938 262.75 138.234375 263.398438 138.234375 264.195312 L 138.234375 275.773438 C 138.234375 276.574219 137.585938 277.222656 136.789062 277.222656 Z M 136.789062 277.222656 " fill-opacity="1" fill-rule="nonzero"/><path fill="#000000" d="M 116.570312 277.222656 C 115.769531 277.222656 115.125 276.574219 115.125 275.773438 L 115.125 264.195312 C 115.125 263.398438 115.769531 262.75 116.570312 262.75 C 117.367188 262.75 118.011719 263.398438 118.011719 264.195312 L 118.011719 275.773438 C 118.011719 276.574219 117.367188 277.222656 116.570312 277.222656 Z M 116.570312 277.222656 " fill-opacity="1" fill-rule="nonzero"/><path fill="#000000" d="M 220.5625 242.488281 C 219.761719 242.488281 219.117188 241.84375 219.117188 241.042969 L 219.117188 183.429688 C 216.996094 181.523438 200.335938 178.8125 187.339844 178.8125 C 174.347656 178.8125 157.6875 181.523438 155.566406 183.429688 L 155.566406 241.042969 C 155.566406 241.84375 154.921875 242.488281 154.121094 242.488281 C 153.324219 242.488281 152.675781 241.84375 152.675781 241.042969 L 152.675781 183.152344 C 152.675781 181.996094 152.675781 179.847656 165.625 177.746094 C 172.5625 176.617188 180.882812 175.917969 187.339844 175.917969 C 193.796875 175.917969 202.117188 176.617188 209.058594 177.746094 C 222.003906 179.847656 222.003906 181.996094 222.003906 183.152344 L 222.003906 241.042969 C 222.003906 241.84375 221.359375 242.488281 220.5625 242.488281 Z M 220.5625 242.488281 " fill-opacity="1" fill-rule="nonzero"/><path fill="#000000" d="M 229.226562 167.234375 L 145.457031 167.234375 C 144.65625 167.234375 144.011719 166.585938 144.011719 165.785156 L 144.011719 136.84375 C 144.011719 136.042969 144.65625 135.394531 145.457031 135.394531 L 229.226562 135.394531 C 230.023438 135.394531 230.671875 136.042969 230.671875 136.84375 L 230.671875 165.785156 C 230.671875 166.585938 230.023438 167.234375 229.226562 167.234375 Z M 146.898438 164.339844 L 227.78125 164.339844 L 227.78125 138.289062 L 146.898438 138.289062 Z M 146.898438 164.339844 " fill-opacity="1" fill-rule="nonzero"/><g clip-path="url(#97bddac420)"><path fill="#000000" d="M 122.347656 167.234375 L 110.792969 167.234375 C 109.992188 167.234375 109.347656 166.585938 109.347656 165.785156 L 109.347656 142.632812 C 109.347656 141.832031 109.992188 141.183594 110.792969 141.183594 L 122.347656 141.183594 C 123.144531 141.183594 123.789062 141.832031 123.789062 142.632812 L 123.789062 165.785156 C 123.789062 166.585938 123.144531 167.234375 122.347656 167.234375 Z M 112.234375 164.339844 L 120.902344 164.339844 L 120.902344 144.078125 L 112.234375 144.078125 Z M 112.234375 164.339844 " fill-opacity="1" fill-rule="nonzero"/></g><g clip-path="url(#4b12884964)"><path fill="#000000" d="M 119.457031 280.117188 C 117.066406 280.117188 115.125 278.167969 115.125 275.773438 C 115.125 274.976562 115.769531 274.328125 116.570312 274.328125 C 117.367188 274.328125 118.011719 274.976562 118.011719 275.773438 C 118.011719 276.570312 118.660156 277.222656 119.457031 277.222656 C 120.253906 277.222656 120.902344 277.871094 120.902344 278.667969 C 120.902344 279.46875 120.253906 280.117188 119.457031 280.117188 Z M 119.457031 280.117188 " fill-opacity="1" fill-rule="nonzero"/></g><g clip-path="url(#1d69f85118)"><path fill="#000000" d="M 133.902344 280.117188 C 133.101562 280.117188 132.457031 279.46875 132.457031 278.667969 C 132.457031 277.871094 133.101562 277.222656 133.902344 277.222656 C 134.699219 277.222656 135.34375 276.570312 135.34375 275.773438 C 135.34375 274.976562 135.992188 274.328125 136.789062 274.328125 C 137.585938 274.328125 138.234375 274.976562 138.234375 275.773438 C 138.234375 278.167969 136.289062 280.117188 133.902344 280.117188 Z M 133.902344 280.117188 " fill-opacity="1" fill-rule="nonzero"/></g><g clip-path="url(#624b641da8)"><path fill="#000000" d="M 133.902344 280.117188 L 119.457031 280.117188 C 118.660156 280.117188 118.011719 279.46875 118.011719 278.667969 C 118.011719 277.871094 118.660156 277.222656 119.457031 277.222656 L 133.902344 277.222656 C 134.699219 277.222656 135.34375 277.871094 135.34375 278.667969 C 135.34375 279.46875 134.699219 280.117188 133.902344 280.117188 Z M 133.902344 280.117188 " fill-opacity="1" fill-rule="nonzero"/></g><path fill="#000000" d="M 258.113281 277.222656 C 257.3125 277.222656 256.667969 276.574219 256.667969 275.773438 L 256.667969 264.195312 C 256.667969 263.398438 257.3125 262.75 258.113281 262.75 C 258.910156 262.75 259.558594 263.398438 259.558594 264.195312 L 259.558594 275.773438 C 259.558594 276.574219 258.910156 277.222656 258.113281 277.222656 Z M 258.113281 277.222656 " fill-opacity="1" fill-rule="nonzero"/><path fill="#000000" d="M 237.890625 277.222656 C 237.09375 277.222656 236.449219 276.574219 236.449219 275.773438 L 236.449219 264.195312 C 236.449219 263.398438 237.09375 262.75 237.890625 262.75 C 238.691406 262.75 239.335938 263.398438 239.335938 264.195312 L 239.335938 275.773438 C 239.335938 276.574219 238.691406 277.222656 237.890625 277.222656 Z M 237.890625 277.222656 " fill-opacity="1" fill-rule="nonzero"/><g clip-path="url(#50fb348b1e)"><path fill="#000000" d="M 240.78125 280.117188 C 238.390625 280.117188 236.449219 278.167969 236.449219 275.773438 C 236.449219 274.976562 237.09375 274.328125 237.890625 274.328125 C 238.691406 274.328125 239.335938 274.976562 239.335938 275.773438 C 239.335938 276.570312 239.984375 277.222656 240.78125 277.222656 C 241.578125 277.222656 242.226562 277.871094 242.226562 278.667969 C 242.226562 279.46875 241.578125 280.117188 240.78125 280.117188 Z M 240.78125 280.117188 " fill-opacity="1" fill-rule="nonzero"/></g><g clip-path="url(#dee1664595)"><path fill="#000000" d="M 255.222656 280.117188 C 254.425781 280.117188 253.78125 279.46875 253.78125 278.667969 C 253.78125 277.871094 254.425781 277.222656 255.222656 277.222656 C 256.019531 277.222656 256.667969 276.570312 256.667969 275.773438 C 256.667969 274.976562 257.3125 274.328125 258.113281 274.328125 C 258.910156 274.328125 259.558594 274.976562 259.558594 275.773438 C 259.558594 278.167969 257.613281 280.117188 255.222656 280.117188 Z M 255.222656 280.117188 " fill-opacity="1" fill-rule="nonzero"/></g><g clip-path="url(#770c1a3a49)"><path fill="#000000" d="M 255.222656 280.117188 L 240.78125 280.117188 C 239.984375 280.117188 239.335938 279.46875 239.335938 278.667969 C 239.335938 277.871094 239.984375 277.222656 240.78125 277.222656 L 255.222656 277.222656 C 256.023438 277.222656 256.667969 277.871094 256.667969 278.667969 C 256.667969 279.46875 256.023438 280.117188 255.222656 280.117188 Z M 255.222656 280.117188 " fill-opacity="1" fill-rule="nonzero"/></g><path fill="#000000" d="M 113.679688 242.488281 C 112.882812 242.488281 112.234375 241.84375 112.234375 241.042969 C 112.234375 220.308594 118.203125 210.652344 131.011719 210.652344 L 151.230469 210.652344 C 152.03125 210.652344 152.675781 211.296875 152.675781 212.097656 C 152.675781 212.898438 152.03125 213.542969 151.230469 213.542969 L 131.011719 213.542969 C 123.617188 213.542969 115.125 216.671875 115.125 241.042969 C 115.125 241.84375 114.480469 242.488281 113.679688 242.488281 Z M 113.679688 242.488281 " fill-opacity="1" fill-rule="nonzero"/><path fill="#000000" d="M 148.34375 236.699219 L 122.347656 236.699219 C 121.546875 236.699219 120.902344 236.054688 120.902344 235.253906 C 120.902344 234.453125 121.546875 233.804688 122.347656 233.804688 L 148.34375 233.804688 C 149.140625 233.804688 149.789062 234.453125 149.789062 235.253906 C 149.789062 236.054688 149.140625 236.699219 148.34375 236.699219 Z M 148.34375 236.699219 " fill-opacity="1" fill-rule="nonzero"/><path fill="#000000" d="M 148.34375 230.910156 L 125.234375 230.910156 C 124.4375 230.910156 123.789062 230.265625 123.789062 229.464844 L 123.789062 220.78125 C 123.789062 219.980469 124.4375 219.332031 125.234375 219.332031 L 148.34375 219.332031 C 149.140625 219.332031 149.789062 219.980469 149.789062 220.78125 L 149.789062 229.464844 C 149.789062 230.265625 149.140625 230.910156 148.34375 230.910156 Z M 126.679688 228.015625 L 146.898438 228.015625 L 146.898438 222.226562 L 126.679688 222.226562 Z M 126.679688 228.015625 " fill-opacity="1" fill-rule="nonzero"/><path fill="#000000" d="M 136.789062 230.910156 C 135.992188 230.910156 135.34375 230.265625 135.34375 229.464844 L 135.34375 220.78125 C 135.34375 219.980469 135.992188 219.332031 136.789062 219.332031 C 137.585938 219.332031 138.234375 219.980469 138.234375 220.78125 L 138.234375 229.464844 C 138.234375 230.265625 137.585938 230.910156 136.789062 230.910156 Z M 136.789062 230.910156 " fill-opacity="1" fill-rule="nonzero"/><path fill="#000000" d="M 261 242.488281 C 260.203125 242.488281 259.558594 241.84375 259.558594 241.042969 C 259.558594 216.671875 251.066406 213.542969 243.667969 213.542969 L 223.449219 213.542969 C 222.652344 213.542969 222.003906 212.898438 222.003906 212.097656 C 222.003906 211.296875 222.652344 210.652344 223.449219 210.652344 L 243.667969 210.652344 C 256.480469 210.652344 262.445312 220.308594 262.445312 241.042969 C 262.445312 241.84375 261.800781 242.488281 261 242.488281 Z M 261 242.488281 " fill-opacity="1" fill-rule="nonzero"/><path fill="#000000" d="M 252.335938 236.699219 L 226.335938 236.699219 C 225.539062 236.699219 224.894531 236.054688 224.894531 235.253906 C 224.894531 234.453125 225.539062 233.804688 226.335938 233.804688 L 252.335938 233.804688 C 253.132812 233.804688 253.78125 234.453125 253.78125 235.253906 C 253.78125 236.054688 253.132812 236.699219 252.335938 236.699219 Z M 252.335938 236.699219 " fill-opacity="1" fill-rule="nonzero"/><path fill="#000000" d="M 249.445312 230.910156 L 226.335938 230.910156 C 225.539062 230.910156 224.894531 230.265625 224.894531 229.464844 L 224.894531 220.78125 C 224.894531 219.980469 225.539062 219.332031 226.335938 219.332031 L 249.445312 219.332031 C 250.246094 219.332031 250.890625 219.980469 250.890625 220.78125 L 250.890625 229.464844 C 250.890625 230.265625 250.246094 230.910156 249.445312 230.910156 Z M 227.78125 228.015625 L 248.003906 228.015625 L 248.003906 222.226562 L 227.78125 222.226562 Z M 227.78125 228.015625 " fill-opacity="1" fill-rule="nonzero"/><path fill="#000000" d="M 237.890625 230.910156 C 237.09375 230.910156 236.449219 230.265625 236.449219 229.464844 L 236.449219 220.78125 C 236.449219 219.980469 237.09375 219.332031 237.890625 219.332031 C 238.691406 219.332031 239.335938 219.980469 239.335938 220.78125 L 239.335938 229.464844 C 239.335938 230.265625 238.691406 230.910156 237.890625 230.910156 Z M 237.890625 230.910156 " fill-opacity="1" fill-rule="nonzero"/><path fill="#000000" d="M 187.339844 178.8125 C 184.953125 178.8125 183.007812 176.863281 183.007812 174.46875 C 183.007812 172.078125 184.953125 170.128906 187.339844 170.128906 C 189.730469 170.128906 191.671875 172.074219 191.671875 174.46875 C 191.671875 176.863281 189.730469 178.8125 187.339844 178.8125 Z M 187.339844 173.023438 C 186.542969 173.023438 185.894531 173.671875 185.894531 174.46875 C 185.894531 175.265625 186.542969 175.917969 187.339844 175.917969 C 188.136719 175.917969 188.785156 175.265625 188.785156 174.46875 C 188.785156 173.671875 188.136719 173.023438 187.339844 173.023438 Z M 187.339844 173.023438 " fill-opacity="1" fill-rule="nonzero"/><path fill="#000000" d="M 165.675781 236.699219 C 164.878906 236.699219 164.230469 236.054688 164.230469 235.253906 L 164.230469 188.105469 C 164.230469 187.304688 164.878906 186.660156 165.675781 186.660156 C 166.472656 186.660156 167.121094 187.304688 167.121094 188.105469 L 167.121094 235.253906 C 167.121094 236.054688 166.472656 236.699219 165.675781 236.699219 Z M 165.675781 236.699219 " fill-opacity="1" fill-rule="nonzero"/><path fill="#000000" d="M 174.34375 236.699219 C 173.542969 236.699219 172.898438 236.054688 172.898438 235.253906 L 172.898438 186.832031 C 172.898438 186.03125 173.542969 185.382812 174.34375 185.382812 C 175.140625 185.382812 175.785156 186.03125 175.785156 186.832031 L 175.785156 235.253906 C 175.785156 236.054688 175.140625 236.699219 174.34375 236.699219 Z M 174.34375 236.699219 " fill-opacity="1" fill-rule="nonzero"/><path fill="#000000" d="M 183.007812 236.699219 C 182.210938 236.699219 181.5625 236.054688 181.5625 235.253906 L 181.5625 186.148438 C 181.5625 185.347656 182.210938 184.699219 183.007812 184.699219 C 183.804688 184.699219 184.453125 185.347656 184.453125 186.148438 L 184.453125 235.253906 C 184.453125 236.054688 183.804688 236.699219 183.007812 236.699219 Z M 183.007812 236.699219 " fill-opacity="1" fill-rule="nonzero"/><path fill="#000000" d="M 191.671875 236.699219 C 190.875 236.699219 190.230469 236.054688 190.230469 235.253906 L 190.230469 186.148438 C 190.230469 185.347656 190.875 184.699219 191.671875 184.699219 C 192.472656 184.699219 193.117188 185.347656 193.117188 186.148438 L 193.117188 235.253906 C 193.117188 236.054688 192.472656 236.699219 191.671875 236.699219 Z M 191.671875 236.699219 " fill-opacity="1" fill-rule="nonzero"/><path fill="#000000" d="M 200.339844 236.699219 C 199.542969 236.699219 198.894531 236.054688 198.894531 235.253906 L 198.894531 186.863281 C 198.894531 186.066406 199.542969 185.417969 200.339844 185.417969 C 201.136719 185.417969 201.785156 186.066406 201.785156 186.863281 L 201.785156 235.253906 C 201.785156 236.054688 201.136719 236.699219 200.339844 236.699219 Z M 200.339844 236.699219 " fill-opacity="1" fill-rule="nonzero"/><path fill="#000000" d="M 209.003906 236.699219 C 208.207031 236.699219 207.5625 236.054688 207.5625 235.253906 L 207.5625 188.171875 C 207.5625 187.371094 208.207031 186.722656 209.003906 186.722656 C 209.804688 186.722656 210.449219 187.371094 210.449219 188.171875 L 210.449219 235.253906 C 210.449219 236.054688 209.804688 236.699219 209.003906 236.699219 Z M 209.003906 236.699219 " fill-opacity="1" fill-rule="nonzero"/><path fill="#000000" d="M 154.121094 178.8125 C 153.75 178.8125 153.382812 178.671875 153.101562 178.386719 L 147.324219 172.597656 C 146.757812 172.035156 146.757812 171.117188 147.324219 170.550781 C 147.886719 169.988281 148.800781 169.988281 149.363281 170.550781 L 155.140625 176.339844 C 155.707031 176.90625 155.707031 177.824219 155.140625 178.386719 C 154.859375 178.671875 154.492188 178.8125 154.121094 178.8125 Z M 154.121094 178.8125 " fill-opacity="1" fill-rule="nonzero"/><path fill="#000000" d="M 220.5625 178.8125 C 220.191406 178.8125 219.820312 178.671875 219.539062 178.386719 C 218.976562 177.824219 218.976562 176.90625 219.539062 176.339844 L 225.316406 170.550781 C 225.882812 169.988281 226.796875 169.988281 227.359375 170.550781 C 227.921875 171.117188 227.921875 172.035156 227.359375 172.597656 L 221.582031 178.386719 C 221.300781 178.671875 220.929688 178.8125 220.5625 178.8125 Z M 220.5625 178.8125 " fill-opacity="1" fill-rule="nonzero"/><path fill="#000000" d="M 187.339844 167.234375 C 186.542969 167.234375 185.894531 166.585938 185.894531 165.785156 L 185.894531 136.84375 C 185.894531 136.042969 186.542969 135.394531 187.339844 135.394531 C 188.140625 135.394531 188.785156 136.042969 188.785156 136.84375 L 188.785156 165.785156 C 188.785156 166.585938 188.140625 167.234375 187.339844 167.234375 Z M 187.339844 167.234375 " fill-opacity="1" fill-rule="nonzero"/><path fill="#000000" d="M 180.121094 161.445312 L 154.121094 161.445312 C 153.324219 161.445312 152.675781 160.796875 152.675781 159.996094 C 152.675781 159.199219 153.324219 158.550781 154.121094 158.550781 L 180.121094 158.550781 C 180.917969 158.550781 181.5625 159.199219 181.5625 159.996094 C 181.5625 160.796875 180.917969 161.445312 180.121094 161.445312 Z M 180.121094 161.445312 " fill-opacity="1" fill-rule="nonzero"/><path fill="#000000" d="M 220.5625 161.445312 L 194.5625 161.445312 C 193.765625 161.445312 193.117188 160.796875 193.117188 159.996094 C 193.117188 159.199219 193.765625 158.550781 194.5625 158.550781 L 220.5625 158.550781 C 221.359375 158.550781 222.003906 159.199219 222.003906 159.996094 C 222.003906 160.796875 221.359375 161.445312 220.5625 161.445312 Z M 220.5625 161.445312 " fill-opacity="1" fill-rule="nonzero"/><path fill="#000000" d="M 145.457031 132.5 C 144.65625 132.5 144.011719 131.855469 144.011719 131.054688 C 144.011719 128.660156 145.953125 126.710938 148.34375 126.710938 C 149.140625 126.710938 149.789062 127.359375 149.789062 128.160156 C 149.789062 128.960938 149.140625 129.605469 148.34375 129.605469 C 147.546875 129.605469 146.898438 130.257812 146.898438 131.054688 C 146.898438 131.855469 146.253906 132.5 145.457031 132.5 Z M 145.457031 132.5 " fill-opacity="1" fill-rule="nonzero"/><path fill="#000000" d="M 145.457031 135.394531 C 144.65625 135.394531 144.011719 134.75 144.011719 133.949219 L 144.011719 131.054688 C 144.011719 130.253906 144.65625 129.605469 145.457031 129.605469 C 146.253906 129.605469 146.898438 130.253906 146.898438 131.054688 L 146.898438 133.949219 C 146.898438 134.75 146.253906 135.394531 145.457031 135.394531 Z M 145.457031 135.394531 " fill-opacity="1" fill-rule="nonzero"/><path fill="#000000" d="M 229.226562 132.5 C 228.429688 132.5 227.78125 131.855469 227.78125 131.054688 C 227.78125 130.257812 227.132812 129.605469 226.335938 129.605469 C 225.539062 129.605469 224.894531 128.960938 224.894531 128.160156 C 224.894531 127.359375 225.539062 126.710938 226.335938 126.710938 C 228.726562 126.710938 230.671875 128.660156 230.671875 131.054688 C 230.671875 131.855469 230.023438 132.5 229.226562 132.5 Z M 229.226562 132.5 " fill-opacity="1" fill-rule="nonzero"/><path fill="#000000" d="M 229.226562 135.394531 C 228.429688 135.394531 227.78125 134.75 227.78125 133.949219 L 227.78125 131.054688 C 227.78125 130.253906 228.429688 129.605469 229.226562 129.605469 C 230.023438 129.605469 230.671875 130.253906 230.671875 131.054688 L 230.671875 133.949219 C 230.671875 134.75 230.023438 135.394531 229.226562 135.394531 Z M 229.226562 135.394531 " fill-opacity="1" fill-rule="nonzero"/><path fill="#000000" d="M 226.335938 129.605469 L 148.34375 129.605469 C 147.546875 129.605469 146.898438 128.960938 146.898438 128.160156 C 146.898438 127.359375 147.546875 126.710938 148.34375 126.710938 L 226.335938 126.710938 C 227.136719 126.710938 227.78125 127.359375 227.78125 128.160156 C 227.78125 128.960938 227.136719 129.605469 226.335938 129.605469 Z M 226.335938 129.605469 " fill-opacity="1" fill-rule="nonzero"/><path fill="#000000" d="M 145.457031 210.648438 C 144.65625 210.648438 144.011719 210.003906 144.011719 209.203125 L 144.011719 168.679688 C 144.011719 167.882812 144.65625 167.234375 145.457031 167.234375 C 146.253906 167.234375 146.898438 167.882812 146.898438 168.679688 L 146.898438 209.203125 C 146.898438 210.003906 146.253906 210.648438 145.457031 210.648438 Z M 145.457031 210.648438 " fill-opacity="1" fill-rule="nonzero"/><path fill="#000000" d="M 131.097656 144.078125 C 130.300781 144.078125 129.640625 143.429688 129.640625 142.632812 C 129.640625 141.832031 130.269531 141.183594 131.070312 141.183594 L 131.097656 141.183594 C 131.894531 141.183594 132.542969 141.832031 132.542969 142.632812 C 132.542969 143.429688 131.894531 144.078125 131.097656 144.078125 Z M 131.097656 144.078125 " fill-opacity="1" fill-rule="nonzero"/><path fill="#000000" d="M 131.097656 149.867188 C 130.300781 149.867188 129.640625 149.21875 129.640625 148.421875 C 129.640625 147.621094 130.269531 146.972656 131.070312 146.972656 L 131.097656 146.972656 C 131.894531 146.972656 132.542969 147.621094 132.542969 148.421875 C 132.542969 149.21875 131.894531 149.867188 131.097656 149.867188 Z M 131.097656 149.867188 " fill-opacity="1" fill-rule="nonzero"/><path fill="#000000" d="M 131.097656 155.65625 C 130.300781 155.65625 129.640625 155.007812 129.640625 154.210938 C 129.640625 153.410156 130.269531 152.761719 131.070312 152.761719 L 131.097656 152.761719 C 131.894531 152.761719 132.542969 153.410156 132.542969 154.210938 C 132.542969 155.007812 131.894531 155.65625 131.097656 155.65625 Z M 131.097656 155.65625 " fill-opacity="1" fill-rule="nonzero"/><path fill="#000000" d="M 131.097656 161.445312 C 130.300781 161.445312 129.640625 160.796875 129.640625 159.996094 C 129.640625 159.199219 130.269531 158.550781 131.070312 158.550781 L 131.097656 158.550781 C 131.894531 158.550781 132.542969 159.199219 132.542969 159.996094 C 132.542969 160.796875 131.894531 161.445312 131.097656 161.445312 Z M 131.097656 161.445312 " fill-opacity="1" fill-rule="nonzero"/><path fill="#000000" d="M 131.097656 167.234375 C 130.300781 167.234375 129.640625 166.585938 129.640625 165.785156 C 129.640625 164.988281 130.269531 164.339844 131.070312 164.339844 L 131.097656 164.339844 C 131.894531 164.339844 132.542969 164.988281 132.542969 165.785156 C 132.542969 166.585938 131.894531 167.234375 131.097656 167.234375 Z M 131.097656 167.234375 " fill-opacity="1" fill-rule="nonzero"/><path fill="#000000" d="M 136.875 146.972656 C 136.078125 146.972656 135.417969 146.324219 135.417969 145.527344 C 135.417969 144.726562 136.046875 144.078125 136.847656 144.078125 L 136.875 144.078125 C 137.671875 144.078125 138.320312 144.726562 138.320312 145.527344 C 138.320312 146.324219 137.671875 146.972656 136.875 146.972656 Z M 136.875 146.972656 " fill-opacity="1" fill-rule="nonzero"/><path fill="#000000" d="M 136.875 152.761719 C 136.078125 152.761719 135.417969 152.113281 135.417969 151.316406 C 135.417969 150.515625 136.046875 149.867188 136.847656 149.867188 L 136.875 149.867188 C 137.671875 149.867188 138.320312 150.515625 138.320312 151.316406 C 138.320312 152.113281 137.671875 152.761719 136.875 152.761719 Z M 136.875 152.761719 " fill-opacity="1" fill-rule="nonzero"/><path fill="#000000" d="M 136.875 158.550781 C 136.078125 158.550781 135.417969 157.902344 135.417969 157.105469 C 135.417969 156.304688 136.046875 155.65625 136.847656 155.65625 L 136.875 155.65625 C 137.671875 155.65625 138.320312 156.304688 138.320312 157.105469 C 138.320312 157.902344 137.671875 158.550781 136.875 158.550781 Z M 136.875 158.550781 " fill-opacity="1" fill-rule="nonzero"/><path fill="#000000" d="M 136.875 164.339844 C 136.078125 164.339844 135.417969 163.691406 135.417969 162.894531 C 135.417969 162.09375 136.046875 161.445312 136.847656 161.445312 L 136.875 161.445312 C 137.671875 161.445312 138.320312 162.09375 138.320312 162.894531 C 138.320312 163.691406 137.671875 164.339844 136.875 164.339844 Z M 136.875 164.339844 " fill-opacity="1" fill-rule="nonzero"/><path fill="#000000" d="M 136.875 170.128906 C 136.078125 170.128906 135.417969 169.480469 135.417969 168.679688 C 135.417969 167.882812 136.046875 167.234375 136.847656 167.234375 L 136.875 167.234375 C 137.671875 167.234375 138.320312 167.882812 138.320312 168.679688 C 138.320312 169.480469 137.671875 170.128906 136.875 170.128906 Z M 136.875 170.128906 " fill-opacity="1" fill-rule="nonzero"/><path fill="#000000" d="M 139.679688 173.023438 C 138.878906 173.023438 138.234375 172.375 138.234375 171.574219 L 138.234375 138.289062 L 129.566406 138.289062 L 129.566406 171.574219 C 129.566406 172.375 128.921875 173.023438 128.125 173.023438 C 127.324219 173.023438 126.679688 172.375 126.679688 171.574219 L 126.679688 136.84375 C 126.679688 136.042969 127.324219 135.394531 128.125 135.394531 L 139.679688 135.394531 C 140.476562 135.394531 141.121094 136.042969 141.121094 136.84375 L 141.121094 171.574219 C 141.121094 172.375 140.476562 173.023438 139.679688 173.023438 Z M 139.679688 173.023438 " fill-opacity="1" fill-rule="nonzero"/><path fill="#000000" d="M 142.566406 201.96875 C 142.347656 201.96875 142.128906 201.917969 141.921875 201.8125 C 135.34375 198.519531 135.34375 192.074219 135.34375 183.152344 C 135.34375 182.355469 135.992188 181.707031 136.789062 181.707031 C 137.585938 181.707031 138.234375 182.355469 138.234375 183.152344 C 138.234375 192.324219 138.445312 196.835938 143.210938 199.226562 C 143.925781 199.585938 144.214844 200.453125 143.859375 201.167969 C 143.605469 201.671875 143.09375 201.96875 142.566406 201.96875 Z M 142.566406 201.96875 " fill-opacity="1" fill-rule="nonzero"/><path fill="#000000" d="M 142.566406 181.707031 L 139.679688 181.707031 C 138.878906 181.707031 138.234375 181.058594 138.234375 180.257812 C 138.234375 179.460938 138.878906 178.8125 139.679688 178.8125 L 142.566406 178.8125 C 143.363281 178.8125 144.011719 179.460938 144.011719 180.257812 C 144.011719 181.058594 143.363281 181.707031 142.566406 181.707031 Z M 142.566406 181.707031 " fill-opacity="1" fill-rule="nonzero"/><path fill="#000000" d="M 136.789062 184.601562 C 135.992188 184.601562 135.34375 183.953125 135.34375 183.152344 C 135.34375 180.757812 137.289062 178.8125 139.679688 178.8125 C 140.476562 178.8125 141.121094 179.460938 141.121094 180.257812 C 141.121094 181.058594 140.476562 181.707031 139.679688 181.707031 C 138.882812 181.707031 138.234375 182.355469 138.234375 183.152344 C 138.234375 183.953125 137.585938 184.601562 136.789062 184.601562 Z M 136.789062 184.601562 " fill-opacity="1" fill-rule="nonzero"/><path fill="#000000" d="M 125.234375 210.648438 C 124.4375 210.648438 123.789062 210.003906 123.789062 209.203125 L 123.789062 177.363281 C 123.789062 176.566406 124.4375 175.917969 125.234375 175.917969 C 126.03125 175.917969 126.679688 176.566406 126.679688 177.363281 L 126.679688 209.203125 C 126.679688 210.003906 126.03125 210.648438 125.234375 210.648438 Z M 125.234375 210.648438 " fill-opacity="1" fill-rule="nonzero"/><path fill="#000000" d="M 125.234375 178.8125 C 124.4375 178.8125 123.789062 178.164062 123.789062 177.363281 C 123.789062 174.96875 125.734375 173.023438 128.125 173.023438 C 128.921875 173.023438 129.566406 173.671875 129.566406 174.46875 C 129.566406 175.269531 128.921875 175.917969 128.125 175.917969 C 127.328125 175.917969 126.679688 176.566406 126.679688 177.363281 C 126.679688 178.164062 126.03125 178.8125 125.234375 178.8125 Z M 125.234375 178.8125 " fill-opacity="1" fill-rule="nonzero"/><path fill="#000000" d="M 142.566406 175.917969 L 128.125 175.917969 C 127.324219 175.917969 126.679688 175.269531 126.679688 174.46875 C 126.679688 173.671875 127.324219 173.023438 128.125 173.023438 L 142.566406 173.023438 C 143.363281 173.023438 144.011719 173.671875 144.011719 174.46875 C 144.011719 175.269531 143.363281 175.917969 142.566406 175.917969 Z M 142.566406 175.917969 " fill-opacity="1" fill-rule="nonzero"/><path fill="#000000" d="M 131.011719 207.753906 C 130.214844 207.753906 129.566406 207.109375 129.566406 206.308594 L 129.566406 180.257812 C 129.566406 179.460938 130.214844 178.8125 131.011719 178.8125 C 131.808594 178.8125 132.457031 179.460938 132.457031 180.257812 L 132.457031 206.308594 C 132.457031 207.109375 131.808594 207.753906 131.011719 207.753906 Z M 131.011719 207.753906 " fill-opacity="1" fill-rule="nonzero"/><path fill="#000000" d="M 136.789062 135.394531 C 135.992188 135.394531 135.34375 134.75 135.34375 133.949219 L 135.34375 105.003906 C 135.34375 104.203125 135.992188 103.558594 136.789062 103.558594 C 137.585938 103.558594 138.234375 104.203125 138.234375 105.003906 L 138.234375 133.949219 C 138.234375 134.75 137.585938 135.394531 136.789062 135.394531 Z M 136.789062 135.394531 " fill-opacity="1" fill-rule="nonzero"/><path fill="#000000" d="M 131.011719 135.394531 C 130.214844 135.394531 129.566406 134.75 129.566406 133.949219 L 129.566406 105.003906 C 129.566406 104.203125 130.214844 103.558594 131.011719 103.558594 C 131.808594 103.558594 132.457031 104.203125 132.457031 105.003906 L 132.457031 133.949219 C 132.457031 134.75 131.808594 135.394531 131.011719 135.394531 Z M 131.011719 135.394531 " fill-opacity="1" fill-rule="nonzero"/><g clip-path="url(#9a59015775)"><path fill="#000000" d="M 136.789062 106.453125 C 135.992188 106.453125 135.34375 105.804688 135.34375 105.003906 C 135.34375 101.011719 132.105469 97.769531 128.125 97.769531 C 127.324219 97.769531 126.679688 97.121094 126.679688 96.320312 C 126.679688 95.523438 127.324219 94.875 128.125 94.875 C 133.699219 94.875 138.234375 99.417969 138.234375 105.003906 C 138.234375 105.804688 137.585938 106.453125 136.789062 106.453125 Z M 136.789062 106.453125 " fill-opacity="1" fill-rule="nonzero"/></g><path fill="#000000" d="M 131.011719 106.453125 C 130.214844 106.453125 129.566406 105.804688 129.566406 105.003906 C 129.566406 104.207031 128.921875 103.558594 128.125 103.558594 C 127.324219 103.558594 126.679688 102.910156 126.679688 102.109375 C 126.679688 101.308594 127.324219 100.664062 128.125 100.664062 C 130.511719 100.664062 132.457031 102.609375 132.457031 105.003906 C 132.457031 105.804688 131.808594 106.453125 131.011719 106.453125 Z M 131.011719 106.453125 " fill-opacity="1" fill-rule="nonzero"/><g clip-path="url(#dbe222bcd3)"><path fill="#000000" d="M 128.125 103.558594 C 127.324219 103.558594 126.679688 102.910156 126.679688 102.109375 L 126.679688 96.320312 C 126.679688 95.523438 127.324219 94.875 128.125 94.875 C 128.921875 94.875 129.566406 95.523438 129.566406 96.320312 L 129.566406 102.109375 C 129.566406 102.910156 128.921875 103.558594 128.125 103.558594 Z M 128.125 103.558594 " fill-opacity="1" fill-rule="nonzero"/></g><path fill="#000000" d="M 243.753906 144.078125 C 242.957031 144.078125 242.296875 143.429688 242.296875 142.632812 C 242.296875 141.832031 242.929688 141.183594 243.726562 141.183594 L 243.753906 141.183594 C 244.554688 141.183594 245.199219 141.832031 245.199219 142.632812 C 245.199219 143.429688 244.554688 144.078125 243.753906 144.078125 Z M 243.753906 144.078125 " fill-opacity="1" fill-rule="nonzero"/><path fill="#000000" d="M 243.753906 149.867188 C 242.957031 149.867188 242.296875 149.21875 242.296875 148.421875 C 242.296875 147.621094 242.929688 146.972656 243.726562 146.972656 L 243.753906 146.972656 C 244.554688 146.972656 245.199219 147.621094 245.199219 148.421875 C 245.199219 149.21875 244.554688 149.867188 243.753906 149.867188 Z M 243.753906 149.867188 " fill-opacity="1" fill-rule="nonzero"/><path fill="#000000" d="M 243.753906 155.65625 C 242.957031 155.65625 242.296875 155.007812 242.296875 154.210938 C 242.296875 153.410156 242.929688 152.761719 243.726562 152.761719 L 243.753906 152.761719 C 244.554688 152.761719 245.199219 153.410156 245.199219 154.210938 C 245.199219 155.007812 244.554688 155.65625 243.753906 155.65625 Z M 243.753906 155.65625 " fill-opacity="1" fill-rule="nonzero"/><path fill="#000000" d="M 243.753906 161.445312 C 242.957031 161.445312 242.296875 160.796875 242.296875 159.996094 C 242.296875 159.199219 242.929688 158.550781 243.726562 158.550781 L 243.753906 158.550781 C 244.554688 158.550781 245.199219 159.199219 245.199219 159.996094 C 245.199219 160.796875 244.554688 161.445312 243.753906 161.445312 Z M 243.753906 161.445312 " fill-opacity="1" fill-rule="nonzero"/><path fill="#000000" d="M 243.753906 167.234375 C 242.957031 167.234375 242.296875 166.585938 242.296875 165.785156 C 242.296875 164.988281 242.929688 164.339844 243.726562 164.339844 L 243.753906 164.339844 C 244.554688 164.339844 245.199219 164.988281 245.199219 165.785156 C 245.199219 166.585938 244.554688 167.234375 243.753906 167.234375 Z M 243.753906 167.234375 " fill-opacity="1" fill-rule="nonzero"/><path fill="#000000" d="M 237.976562 146.972656 C 237.179688 146.972656 236.519531 146.324219 236.519531 145.527344 C 236.519531 144.726562 237.152344 144.078125 237.949219 144.078125 L 237.976562 144.078125 C 238.777344 144.078125 239.421875 144.726562 239.421875 145.527344 C 239.421875 146.324219 238.777344 146.972656 237.976562 146.972656 Z M 237.976562 146.972656 " fill-opacity="1" fill-rule="nonzero"/><path fill="#000000" d="M 237.976562 152.761719 C 237.179688 152.761719 236.519531 152.113281 236.519531 151.316406 C 236.519531 150.515625 237.152344 149.867188 237.949219 149.867188 L 237.976562 149.867188 C 238.777344 149.867188 239.421875 150.515625 239.421875 151.316406 C 239.421875 152.113281 238.777344 152.761719 237.976562 152.761719 Z M 237.976562 152.761719 " fill-opacity="1" fill-rule="nonzero"/><path fill="#000000" d="M 237.976562 158.550781 C 237.179688 158.550781 236.519531 157.902344 236.519531 157.105469 C 236.519531 156.304688 237.152344 155.65625 237.949219 155.65625 L 237.976562 155.65625 C 238.777344 155.65625 239.421875 156.304688 239.421875 157.105469 C 239.421875 157.902344 238.777344 158.550781 237.976562 158.550781 Z M 237.976562 158.550781 " fill-opacity="1" fill-rule="nonzero"/><path fill="#000000" d="M 237.976562 164.339844 C 237.179688 164.339844 236.519531 163.691406 236.519531 162.894531 C 236.519531 162.09375 237.152344 161.445312 237.949219 161.445312 L 237.976562 161.445312 C 238.777344 161.445312 239.421875 162.09375 239.421875 162.894531 C 239.421875 163.691406 238.777344 164.339844 237.976562 164.339844 Z M 237.976562 164.339844 " fill-opacity="1" fill-rule="nonzero"/><path fill="#000000" d="M 237.976562 170.128906 C 237.179688 170.128906 236.519531 169.480469 236.519531 168.679688 C 236.519531 167.882812 237.152344 167.234375 237.949219 167.234375 L 237.976562 167.234375 C 238.777344 167.234375 239.421875 167.882812 239.421875 168.679688 C 239.421875 169.480469 238.777344 170.128906 237.976562 170.128906 Z M 237.976562 170.128906 " fill-opacity="1" fill-rule="nonzero"/><path fill="#000000" d="M 246.558594 173.023438 C 245.761719 173.023438 245.113281 172.375 245.113281 171.574219 L 245.113281 138.289062 L 236.449219 138.289062 L 236.449219 171.574219 C 236.449219 172.375 235.800781 173.023438 235.003906 173.023438 C 234.207031 173.023438 233.558594 172.375 233.558594 171.574219 L 233.558594 136.84375 C 233.558594 136.042969 234.207031 135.394531 235.003906 135.394531 L 246.558594 135.394531 C 247.355469 135.394531 248.003906 136.042969 248.003906 136.84375 L 248.003906 171.574219 C 248.003906 172.375 247.355469 173.023438 246.558594 173.023438 Z M 246.558594 173.023438 " fill-opacity="1" fill-rule="nonzero"/><path fill="#000000" d="M 232.113281 201.96875 C 231.585938 201.96875 231.078125 201.671875 230.824219 201.167969 C 230.46875 200.453125 230.753906 199.585938 231.46875 199.226562 C 236.238281 196.835938 236.449219 192.324219 236.449219 183.152344 C 236.449219 182.355469 237.09375 181.707031 237.890625 181.707031 C 238.691406 181.707031 239.335938 182.355469 239.335938 183.152344 C 239.335938 192.074219 239.335938 198.519531 232.761719 201.8125 C 232.554688 201.917969 232.335938 201.96875 232.113281 201.96875 Z M 232.113281 201.96875 " fill-opacity="1" fill-rule="nonzero"/><path fill="#000000" d="M 235.003906 181.707031 L 232.113281 181.707031 C 231.316406 181.707031 230.671875 181.058594 230.671875 180.257812 C 230.671875 179.460938 231.316406 178.8125 232.113281 178.8125 L 235.003906 178.8125 C 235.800781 178.8125 236.449219 179.460938 236.449219 180.257812 C 236.449219 181.058594 235.800781 181.707031 235.003906 181.707031 Z M 235.003906 181.707031 " fill-opacity="1" fill-rule="nonzero"/><path fill="#000000" d="M 237.890625 184.601562 C 237.09375 184.601562 236.449219 183.953125 236.449219 183.152344 C 236.449219 182.355469 235.800781 181.707031 235.003906 181.707031 C 234.207031 181.707031 233.558594 181.058594 233.558594 180.257812 C 233.558594 179.460938 234.207031 178.8125 235.003906 178.8125 C 237.394531 178.8125 239.335938 180.757812 239.335938 183.152344 C 239.335938 183.953125 238.691406 184.601562 237.890625 184.601562 Z M 237.890625 184.601562 " fill-opacity="1" fill-rule="nonzero"/><path fill="#000000" d="M 249.445312 210.648438 C 248.648438 210.648438 248.003906 210.003906 248.003906 209.203125 L 248.003906 177.363281 C 248.003906 176.566406 248.648438 175.917969 249.445312 175.917969 C 250.246094 175.917969 250.890625 176.566406 250.890625 177.363281 L 250.890625 209.203125 C 250.890625 210.003906 250.246094 210.648438 249.445312 210.648438 Z M 249.445312 210.648438 " fill-opacity="1" fill-rule="nonzero"/><path fill="#000000" d="M 249.445312 178.8125 C 248.648438 178.8125 248.003906 178.164062 248.003906 177.363281 C 248.003906 176.566406 247.355469 175.917969 246.558594 175.917969 C 245.761719 175.917969 245.113281 175.269531 245.113281 174.46875 C 245.113281 173.671875 245.761719 173.023438 246.558594 173.023438 C 248.949219 173.023438 250.890625 174.96875 250.890625 177.363281 C 250.890625 178.164062 250.246094 178.8125 249.445312 178.8125 Z M 249.445312 178.8125 " fill-opacity="1" fill-rule="nonzero"/><path fill="#000000" d="M 246.558594 175.917969 L 232.113281 175.917969 C 231.316406 175.917969 230.671875 175.269531 230.671875 174.46875 C 230.671875 173.671875 231.316406 173.023438 232.113281 173.023438 L 246.558594 173.023438 C 247.355469 173.023438 248.003906 173.671875 248.003906 174.46875 C 248.003906 175.269531 247.355469 175.917969 246.558594 175.917969 Z M 246.558594 175.917969 " fill-opacity="1" fill-rule="nonzero"/><path fill="#000000" d="M 243.667969 207.753906 C 242.871094 207.753906 242.226562 207.109375 242.226562 206.308594 L 242.226562 180.257812 C 242.226562 179.460938 242.871094 178.8125 243.667969 178.8125 C 244.46875 178.8125 245.113281 179.460938 245.113281 180.257812 L 245.113281 206.308594 C 245.113281 207.109375 244.46875 207.753906 243.667969 207.753906 Z M 243.667969 207.753906 " fill-opacity="1" fill-rule="nonzero"/><path fill="#000000" d="M 237.890625 135.394531 C 237.09375 135.394531 236.449219 134.75 236.449219 133.949219 L 236.449219 105.003906 C 236.449219 104.203125 237.09375 103.558594 237.890625 103.558594 C 238.691406 103.558594 239.335938 104.203125 239.335938 105.003906 L 239.335938 133.949219 C 239.335938 134.75 238.691406 135.394531 237.890625 135.394531 Z M 237.890625 135.394531 " fill-opacity="1" fill-rule="nonzero"/><path fill="#000000" d="M 243.667969 135.394531 C 242.871094 135.394531 242.226562 134.75 242.226562 133.949219 L 242.226562 105.003906 C 242.226562 104.203125 242.871094 103.558594 243.667969 103.558594 C 244.46875 103.558594 245.113281 104.203125 245.113281 105.003906 L 245.113281 133.949219 C 245.113281 134.75 244.46875 135.394531 243.667969 135.394531 Z M 243.667969 135.394531 " fill-opacity="1" fill-rule="nonzero"/><g clip-path="url(#2fc68639f4)"><path fill="#000000" d="M 237.890625 106.453125 C 237.09375 106.453125 236.449219 105.804688 236.449219 105.003906 C 236.449219 99.417969 240.984375 94.875 246.558594 94.875 C 247.355469 94.875 248.003906 95.523438 248.003906 96.320312 C 248.003906 97.121094 247.355469 97.769531 246.558594 97.769531 C 242.574219 97.769531 239.335938 101.011719 239.335938 105.003906 C 239.335938 105.804688 238.691406 106.453125 237.890625 106.453125 Z M 237.890625 106.453125 " fill-opacity="1" fill-rule="nonzero"/></g><path fill="#000000" d="M 243.667969 106.453125 C 242.871094 106.453125 242.226562 105.804688 242.226562 105.003906 C 242.226562 102.609375 244.167969 100.664062 246.558594 100.664062 C 247.355469 100.664062 248.003906 101.308594 248.003906 102.109375 C 248.003906 102.910156 247.355469 103.558594 246.558594 103.558594 C 245.761719 103.558594 245.113281 104.207031 245.113281 105.003906 C 245.113281 105.804688 244.46875 106.453125 243.667969 106.453125 Z M 243.667969 106.453125 " fill-opacity="1" fill-rule="nonzero"/><g clip-path="url(#9a5e604988)"><path fill="#000000" d="M 246.558594 103.558594 C 245.761719 103.558594 245.113281 102.910156 245.113281 102.109375 L 245.113281 96.320312 C 245.113281 95.523438 245.761719 94.875 246.558594 94.875 C 247.355469 94.875 248.003906 95.523438 248.003906 96.320312 L 248.003906 102.109375 C 248.003906 102.910156 247.355469 103.558594 246.558594 103.558594 Z M 246.558594 103.558594 " fill-opacity="1" fill-rule="nonzero"/></g><path fill="#000000" d="M 229.226562 210.648438 C 228.429688 210.648438 227.78125 210.003906 227.78125 209.203125 L 227.78125 168.679688 C 227.78125 167.882812 228.429688 167.234375 229.226562 167.234375 C 230.023438 167.234375 230.671875 167.882812 230.671875 168.679688 L 230.671875 209.203125 C 230.671875 210.003906 230.023438 210.648438 229.226562 210.648438 Z M 229.226562 210.648438 " fill-opacity="1" fill-rule="nonzero"/><path fill="#000000" d="M 232.113281 120.921875 L 142.566406 120.921875 C 141.769531 120.921875 141.121094 120.277344 141.121094 119.476562 C 141.121094 118.675781 141.769531 118.027344 142.566406 118.027344 L 232.113281 118.027344 C 232.914062 118.027344 233.558594 118.675781 233.558594 119.476562 C 233.558594 120.277344 232.914062 120.921875 232.113281 120.921875 Z M 232.113281 120.921875 " fill-opacity="1" fill-rule="nonzero"/><path fill="#000000" d="M 116.570312 144.078125 C 115.769531 144.078125 115.125 143.429688 115.125 142.632812 C 115.125 138.640625 118.363281 135.394531 122.347656 135.394531 C 123.144531 135.394531 123.789062 136.042969 123.789062 136.84375 C 123.789062 137.644531 123.144531 138.289062 122.347656 138.289062 C 119.957031 138.289062 118.011719 140.238281 118.011719 142.632812 C 118.011719 143.433594 117.367188 144.078125 116.570312 144.078125 Z M 116.570312 144.078125 " fill-opacity="1" fill-rule="nonzero"/><path fill="#000000" d="M 122.347656 173.023438 C 118.363281 173.023438 115.125 169.777344 115.125 165.785156 C 115.125 164.988281 115.769531 164.339844 116.570312 164.339844 C 117.367188 164.339844 118.011719 164.988281 118.011719 165.785156 C 118.011719 168.179688 119.957031 170.128906 122.347656 170.128906 C 123.144531 170.128906 123.789062 170.777344 123.789062 171.574219 C 123.789062 172.375 123.144531 173.023438 122.347656 173.023438 Z M 122.347656 173.023438 " fill-opacity="1" fill-rule="nonzero"/><g clip-path="url(#bef02ab1cb)"><path fill="#000000" d="M 263.890625 167.234375 L 252.335938 167.234375 C 251.539062 167.234375 250.890625 166.585938 250.890625 165.785156 L 250.890625 142.632812 C 250.890625 141.832031 251.539062 141.183594 252.335938 141.183594 L 263.890625 141.183594 C 264.6875 141.183594 265.335938 141.832031 265.335938 142.632812 L 265.335938 165.785156 C 265.335938 166.585938 264.6875 167.234375 263.890625 167.234375 Z M 253.78125 164.339844 L 262.445312 164.339844 L 262.445312 144.078125 L 253.78125 144.078125 Z M 253.78125 164.339844 " fill-opacity="1" fill-rule="nonzero"/></g><path fill="#000000" d="M 252.335938 173.023438 C 251.539062 173.023438 250.890625 172.375 250.890625 171.574219 C 250.890625 170.777344 251.539062 170.128906 252.335938 170.128906 C 254.726562 170.128906 256.667969 168.179688 256.667969 165.785156 C 256.667969 164.988281 257.3125 164.339844 258.113281 164.339844 C 258.910156 164.339844 259.558594 164.988281 259.558594 165.785156 C 259.558594 169.777344 256.320312 173.023438 252.335938 173.023438 Z M 252.335938 173.023438 " fill-opacity="1" fill-rule="nonzero"/><path fill="#000000" d="M 258.113281 144.078125 C 257.3125 144.078125 256.667969 143.429688 256.667969 142.632812 C 256.667969 140.238281 254.726562 138.289062 252.335938 138.289062 C 251.539062 138.289062 250.890625 137.644531 250.890625 136.84375 C 250.890625 136.042969 251.539062 135.394531 252.335938 135.394531 C 256.320312 135.394531 259.558594 138.640625 259.558594 142.632812 C 259.558594 143.433594 258.910156 144.078125 258.113281 144.078125 Z M 258.113281 144.078125 " fill-opacity="1" fill-rule="nonzero"/><path fill="#000000" d="M 139.679688 123.816406 C 138.878906 123.816406 138.234375 123.171875 138.234375 122.371094 C 138.234375 119.976562 140.175781 118.03125 142.566406 118.03125 C 143.363281 118.03125 144.011719 118.675781 144.011719 119.476562 C 144.011719 120.277344 143.363281 120.925781 142.566406 120.925781 C 141.769531 120.925781 141.121094 121.574219 141.121094 122.371094 C 141.121094 123.171875 140.476562 123.816406 139.679688 123.816406 Z M 139.679688 123.816406 " fill-opacity="1" fill-rule="nonzero"/><path fill="#000000" d="M 235.003906 123.816406 C 234.207031 123.816406 233.558594 123.171875 233.558594 122.371094 C 233.558594 121.574219 232.910156 120.925781 232.113281 120.925781 C 231.316406 120.925781 230.671875 120.277344 230.671875 119.476562 C 230.671875 118.675781 231.316406 118.03125 232.113281 118.03125 C 234.503906 118.03125 236.449219 119.976562 236.449219 122.371094 C 236.449219 123.171875 235.800781 123.816406 235.003906 123.816406 Z M 235.003906 123.816406 " fill-opacity="1" fill-rule="nonzero"/><path fill="#000000" d="M 126.679688 274.328125 C 125.878906 274.328125 125.234375 273.679688 125.234375 272.878906 L 125.234375 267.089844 C 125.234375 266.292969 125.878906 265.644531 126.679688 265.644531 C 127.476562 265.644531 128.125 266.292969 128.125 267.089844 L 128.125 272.878906 C 128.125 273.679688 127.476562 274.328125 126.679688 274.328125 Z M 126.679688 274.328125 " fill-opacity="1" fill-rule="nonzero"/><path fill="#000000" d="M 248.003906 274.328125 C 247.203125 274.328125 246.558594 273.679688 246.558594 272.878906 L 246.558594 267.089844 C 246.558594 266.292969 247.203125 265.644531 248.003906 265.644531 C 248.800781 265.644531 249.445312 266.292969 249.445312 267.089844 L 249.445312 272.878906 C 249.445312 273.679688 248.800781 274.328125 248.003906 274.328125 Z M 248.003906 274.328125 " fill-opacity="1" fill-rule="nonzero"/><path fill="#000000" d="M 118.011719 262.75 C 117.214844 262.75 116.570312 262.101562 116.570312 261.300781 L 116.570312 258.40625 C 116.570312 257.609375 117.214844 256.960938 118.011719 256.960938 C 118.8125 256.960938 119.457031 257.609375 119.457031 258.40625 L 119.457031 261.300781 C 119.457031 262.101562 118.8125 262.75 118.011719 262.75 Z M 118.011719 262.75 " fill-opacity="1" fill-rule="nonzero"/><path fill="#000000" d="M 126.679688 262.75 C 125.878906 262.75 125.234375 262.101562 125.234375 261.300781 L 125.234375 258.40625 C 125.234375 257.609375 125.878906 256.960938 126.679688 256.960938 C 127.476562 256.960938 128.125 257.609375 128.125 258.40625 L 128.125 261.300781 C 128.125 262.101562 127.476562 262.75 126.679688 262.75 Z M 126.679688 262.75 " fill-opacity="1" fill-rule="nonzero"/><path fill="#000000" d="M 135.34375 262.75 C 134.546875 262.75 133.902344 262.101562 133.902344 261.300781 L 133.902344 258.40625 C 133.902344 257.609375 134.546875 256.960938 135.34375 256.960938 C 136.144531 256.960938 136.789062 257.609375 136.789062 258.40625 L 136.789062 261.300781 C 136.789062 262.101562 136.144531 262.75 135.34375 262.75 Z M 135.34375 262.75 " fill-opacity="1" fill-rule="nonzero"/><path fill="#000000" d="M 144.011719 262.75 C 143.210938 262.75 142.566406 262.101562 142.566406 261.300781 L 142.566406 258.40625 C 142.566406 257.609375 143.210938 256.960938 144.011719 256.960938 C 144.808594 256.960938 145.457031 257.609375 145.457031 258.40625 L 145.457031 261.300781 C 145.457031 262.101562 144.808594 262.75 144.011719 262.75 Z M 144.011719 262.75 " fill-opacity="1" fill-rule="nonzero"/><path fill="#000000" d="M 152.675781 262.75 C 151.878906 262.75 151.230469 262.101562 151.230469 261.300781 L 151.230469 258.40625 C 151.230469 257.609375 151.878906 256.960938 152.675781 256.960938 C 153.476562 256.960938 154.121094 257.609375 154.121094 258.40625 L 154.121094 261.300781 C 154.121094 262.101562 153.476562 262.75 152.675781 262.75 Z M 152.675781 262.75 " fill-opacity="1" fill-rule="nonzero"/><path fill="#000000" d="M 161.34375 262.75 C 160.542969 262.75 159.898438 262.101562 159.898438 261.300781 L 159.898438 258.40625 C 159.898438 257.609375 160.542969 256.960938 161.34375 256.960938 C 162.140625 256.960938 162.789062 257.609375 162.789062 258.40625 L 162.789062 261.300781 C 162.789062 262.101562 162.140625 262.75 161.34375 262.75 Z M 161.34375 262.75 " fill-opacity="1" fill-rule="nonzero"/><path fill="#000000" d="M 170.007812 262.75 C 169.210938 262.75 168.566406 262.101562 168.566406 261.300781 L 168.566406 258.40625 C 168.566406 257.609375 169.210938 256.960938 170.007812 256.960938 C 170.808594 256.960938 171.453125 257.609375 171.453125 258.40625 L 171.453125 261.300781 C 171.453125 262.101562 170.808594 262.75 170.007812 262.75 Z M 170.007812 262.75 " fill-opacity="1" fill-rule="nonzero"/><path fill="#000000" d="M 178.675781 262.75 C 177.875 262.75 177.230469 262.101562 177.230469 261.300781 L 177.230469 258.40625 C 177.230469 257.609375 177.875 256.960938 178.675781 256.960938 C 179.472656 256.960938 180.121094 257.609375 180.121094 258.40625 L 180.121094 261.300781 C 180.121094 262.101562 179.472656 262.75 178.675781 262.75 Z M 178.675781 262.75 " fill-opacity="1" fill-rule="nonzero"/><path fill="#000000" d="M 187.339844 262.75 C 186.542969 262.75 185.894531 262.101562 185.894531 261.300781 L 185.894531 258.40625 C 185.894531 257.609375 186.542969 256.960938 187.339844 256.960938 C 188.140625 256.960938 188.785156 257.609375 188.785156 258.40625 L 188.785156 261.300781 C 188.785156 262.101562 188.140625 262.75 187.339844 262.75 Z M 187.339844 262.75 " fill-opacity="1" fill-rule="nonzero"/><path fill="#000000" d="M 196.007812 262.75 C 195.207031 262.75 194.5625 262.101562 194.5625 261.300781 L 194.5625 258.40625 C 194.5625 257.609375 195.207031 256.960938 196.007812 256.960938 C 196.804688 256.960938 197.453125 257.609375 197.453125 258.40625 L 197.453125 261.300781 C 197.453125 262.101562 196.804688 262.75 196.007812 262.75 Z M 196.007812 262.75 " fill-opacity="1" fill-rule="nonzero"/><path fill="#000000" d="M 204.671875 262.75 C 203.875 262.75 203.230469 262.101562 203.230469 261.300781 L 203.230469 258.40625 C 203.230469 257.609375 203.875 256.960938 204.671875 256.960938 C 205.472656 256.960938 206.117188 257.609375 206.117188 258.40625 L 206.117188 261.300781 C 206.117188 262.101562 205.472656 262.75 204.671875 262.75 Z M 204.671875 262.75 " fill-opacity="1" fill-rule="nonzero"/><path fill="#000000" d="M 213.339844 262.75 C 212.539062 262.75 211.894531 262.101562 211.894531 261.300781 L 211.894531 258.40625 C 211.894531 257.609375 212.539062 256.960938 213.339844 256.960938 C 214.136719 256.960938 214.78125 257.609375 214.78125 258.40625 L 214.78125 261.300781 C 214.78125 262.101562 214.136719 262.75 213.339844 262.75 Z M 213.339844 262.75 " fill-opacity="1" fill-rule="nonzero"/><path fill="#000000" d="M 222.003906 262.75 C 221.207031 262.75 220.5625 262.101562 220.5625 261.300781 L 220.5625 258.40625 C 220.5625 257.609375 221.207031 256.960938 222.003906 256.960938 C 222.804688 256.960938 223.449219 257.609375 223.449219 258.40625 L 223.449219 261.300781 C 223.449219 262.101562 222.804688 262.75 222.003906 262.75 Z M 222.003906 262.75 " fill-opacity="1" fill-rule="nonzero"/><path fill="#000000" d="M 230.671875 262.75 C 229.871094 262.75 229.226562 262.101562 229.226562 261.300781 L 229.226562 258.40625 C 229.226562 257.609375 229.871094 256.960938 230.671875 256.960938 C 231.46875 256.960938 232.113281 257.609375 232.113281 258.40625 L 232.113281 261.300781 C 232.113281 262.101562 231.46875 262.75 230.671875 262.75 Z M 230.671875 262.75 " fill-opacity="1" fill-rule="nonzero"/><path fill="#000000" d="M 239.335938 262.75 C 238.539062 262.75 237.890625 262.101562 237.890625 261.300781 L 237.890625 258.40625 C 237.890625 257.609375 238.539062 256.960938 239.335938 256.960938 C 240.136719 256.960938 240.78125 257.609375 240.78125 258.40625 L 240.78125 261.300781 C 240.78125 262.101562 240.136719 262.75 239.335938 262.75 Z M 239.335938 262.75 " fill-opacity="1" fill-rule="nonzero"/><path fill="#000000" d="M 248.003906 262.75 C 247.203125 262.75 246.558594 262.101562 246.558594 261.300781 L 246.558594 258.40625 C 246.558594 257.609375 247.203125 256.960938 248.003906 256.960938 C 248.800781 256.960938 249.445312 257.609375 249.445312 258.40625 L 249.445312 261.300781 C 249.445312 262.101562 248.800781 262.75 248.003906 262.75 Z M 248.003906 262.75 " fill-opacity="1" fill-rule="nonzero"/><path fill="#000000" d="M 256.667969 262.75 C 255.871094 262.75 255.222656 262.101562 255.222656 261.300781 L 255.222656 258.40625 C 255.222656 257.609375 255.871094 256.960938 256.667969 256.960938 C 257.464844 256.960938 258.113281 257.609375 258.113281 258.40625 L 258.113281 261.300781 C 258.113281 262.101562 257.46875 262.75 256.667969 262.75 Z M 256.667969 262.75 " fill-opacity="1" fill-rule="nonzero"/></svg>