<svg xmlns="http://www.w3.org/2000/svg" xmlns:xlink="http://www.w3.org/1999/xlink" width="500" zoomAndPan="magnify" viewBox="0 0 375 374.999991" height="500" preserveAspectRatio="xMidYMid meet" version="1.0"><defs><clipPath id="d5f697d593"><path d="M 0 23.164062 L 375 23.164062 L 375 351.664062 L 0 351.664062 Z M 0 23.164062 " clip-rule="nonzero"/></clipPath><clipPath id="5a5d1d860c"><path d="M 172 110.75 L 248 110.75 L 248 152.410156 L 172 152.410156 Z M 172 110.75 " clip-rule="nonzero"/></clipPath><clipPath id="2dbed50c8a"><path d="M 129 206 L 177 206 L 177 264.363281 L 129 264.363281 Z M 129 206 " clip-rule="nonzero"/></clipPath><clipPath id="9bb19d924f"><path d="M 96 226 L 127 226 L 127 264.363281 L 96 264.363281 Z M 96 226 " clip-rule="nonzero"/></clipPath></defs><rect x="-37.5" width="450" fill="#ffffff" y="-37.499999" height="449.999989" fill-opacity="1"/><rect x="-37.5" width="450" fill="#ffffff" y="-37.499999" height="449.999989" fill-opacity="1"/><g clip-path="url(#d5f697d593)"><path fill="#2c4b68" d="M 280.683594 23.164062 L 94.316406 23.164062 L 0.00390625 187.414062 L 94.316406 351.664062 L 280.683594 351.664062 L 374.996094 187.414062 L 280.683594 23.164062 M 275.550781 342.765625 L 99.449219 342.765625 L 10.265625 187.414062 L 99.449219 32.0625 L 275.550781 32.0625 L 364.734375 187.414062 L 275.550781 342.765625 " fill-opacity="1" fill-rule="nonzero"/></g><path fill="#000000" d="M 153.121094 216.59375 L 200.859375 185.429688 L 200.859375 158.519531 L 153.121094 189.683594 Z M 153.121094 216.59375 " fill-opacity="1" fill-rule="nonzero"/><path fill="#000000" d="M 120.296875 205.414062 L 150.132812 216.59375 L 150.132812 189.683594 L 120.296875 178.503906 Z M 120.296875 205.414062 " fill-opacity="1" fill-rule="nonzero"/><path fill="#000000" d="M 151.632812 185.078125 L 196.386719 156.140625 L 167.089844 143.589844 L 122.164062 173.371094 Z M 151.632812 185.078125 " fill-opacity="1" fill-rule="nonzero"/><path fill="#000000" d="M 251.585938 125.675781 L 203.847656 156.839844 L 203.847656 183.75 L 251.585938 152.601562 Z M 251.585938 125.675781 " fill-opacity="1" fill-rule="nonzero"/><g clip-path="url(#5a5d1d860c)"><path fill="#000000" d="M 247.097656 123.300781 L 217.816406 110.75 L 172.890625 140.53125 L 202.347656 152.234375 Z M 247.097656 123.300781 " fill-opacity="1" fill-rule="nonzero"/></g><g clip-path="url(#2dbed50c8a)"><path fill="#000000" d="M 129.257812 264.363281 L 176.996094 233.199219 L 176.996094 206.289062 L 129.257812 237.453125 Z M 129.257812 264.363281 " fill-opacity="1" fill-rule="nonzero"/></g><g clip-path="url(#9bb19d924f)"><path fill="#000000" d="M 126.269531 237.453125 L 96.433594 226.273438 L 96.433594 253.183594 L 126.269531 264.363281 Z M 126.269531 237.453125 " fill-opacity="1" fill-rule="nonzero"/></g><path fill="#000000" d="M 146.871094 221.054688 L 119.351562 209.261719 L 98.300781 222.191406 L 127.757812 232.847656 Z M 146.871094 221.054688 " fill-opacity="1" fill-rule="nonzero"/><path fill="#000000" d="M 254.558594 148.722656 L 256.058594 149.261719 L 275.15625 137.46875 L 254.558594 128.632812 Z M 254.558594 148.722656 " fill-opacity="1" fill-rule="nonzero"/><path fill="#000000" d="M 179.96875 231.519531 L 227.710938 200.355469 L 227.710938 173.445312 L 179.96875 204.613281 Z M 179.96875 231.519531 " fill-opacity="1" fill-rule="nonzero"/><path fill="#000000" d="M 230.695312 171.769531 L 230.695312 198.679688 L 278.433594 167.527344 L 278.433594 140.601562 Z M 230.695312 171.769531 " fill-opacity="1" fill-rule="nonzero"/></svg>