<svg id="Layer_1" data-name="Layer 1" xmlns="http://www.w3.org/2000/svg" viewBox="0 0 867.7746 1000"><defs><style>.cls-1{fill:#fff;}.cls-2{fill:#2c4b68;}.cls-3{fill:#757e94;}.cls-4{fill:#8eb2d8;}.cls-5{fill:#5885a3;}</style></defs><title>Design</title><path class="cls-1" d="M933.8873,361.7465a61.7942,61.7942,0,0,0-20.1858-45.6175L785.6631,199.7882a58.42,58.42,0,0,0-15.8846-10.2965,38.8549,38.8549,0,0,0-9.4819-12.7566C754.8387,171.88,626.2138,57.56,594.95,30.2542,572.9392,11.03,546.0249,0,521.0981,0c-19.1267,0-36.2333,6.7611-48.1428,19.0616a58.639,58.639,0,0,0-10.9481,15.95,38.6559,38.6559,0,0,0-11.9909,4.9364L307.7388,129.016a39.0368,39.0368,0,0,0-17.807,26.67c-.1142.7331-.2283,1.45-.2936,2.1831-38.9213,2.4437-67.579,22.1081-103.2256,46.5787-4.8712,3.34-9.9056,6.7937-15.2168,10.378-29.4721,19.925-54.5943,42.31-72.6131,64.7442-21.5545,26.8165-32.47,52.7207-32.47,76.9957v51.0428a76.4243,76.4243,0,0,0,13.6366,43.2061c-8.5209,8.9281-13.6366,20.365-13.6366,32.8121v56.8426A41.5813,41.5813,0,0,0,72.76,563.2128a39.0033,39.0033,0,0,0-6.6473,21.7823V823.216a39.0879,39.0879,0,0,0,10.1988,26.3116,57.5715,57.5715,0,0,0-10.1988,32.91v40.681c0,21.375,12.7078,42.1146,34.8485,56.8751C114.6465,989.117,138.2209,1000,172.7761,1000q22.3365,0,38.3513-7.364a52.4176,52.4176,0,0,0,26.8,7.364h92.6851a55.8175,55.8175,0,0,0,17.6278-2.8511A38.7752,38.7752,0,0,0,362.887,1000h17.8072a39.1108,39.1108,0,0,0,39.1007-39.1007V738.5142a91.9354,91.9354,0,1,1,183.8707,0V960.8993A39.1107,39.1107,0,0,0,642.7663,1000h17.8074a38.6643,38.6643,0,0,0,13.9782-2.5905A53.3554,53.3554,0,0,0,691.0069,1000h79.13a58.822,58.822,0,0,0,26.3765-6.2072A66.0961,66.0961,0,0,0,824.4542,1000h21.5705a87.98,87.98,0,0,0,87.8626-87.8788v-72.01a39.1193,39.1193,0,0,0-13.7993-29.8143c7.69-12.7729,13.7993-27.99,13.7993-44.0046V707.3313a94.1623,94.1623,0,0,0-18.1819-55.751,60.8947,60.8947,0,0,0,18.1819-43.5V481.0036a56.14,56.14,0,0,0-9.319-31.0362,53.8537,53.8537,0,0,0,9.319-30.3356ZM569.2337,59.7009C600.73,87.2148,734.317,205.9589,734.317,205.9589s-22.8075,8.1077-79.6456,7.6025c-61.5441-2.8962-97.3846-15.567-111.8655-44.1671s-45.9771-96.2985-47.7873-104.987C493.9326,30.7389,537.7377,32.187,569.2337,59.7009Zm104.1727,434.24c-28.4958,10.2018-64.8144,5.4429-84.9294-41.4917s-5.5874-70.9609,20.6736-79.9008,45.2585-8.3812,54.1986,19.5561c0,0,3.9111,36.3186,14.5681,54.8107S701.9026,483.7388,673.4064,493.9408Zm22.35,14.3829c19.5559-16.2036,44.1408-20.1148,44.1408-4.47v55.9768a13.2737,13.2737,0,0,1-15.7729,13.0232c-21.1578-3.9891-55.2868-5.5648-81.4488-8.0967-34.6425-3.3525-25.7024-40.7885-25.7024-40.7885C643.2342,532.35,676.2,524.5274,695.7565,508.3237ZM656.0854,339.5823c-8.3812,16.7624-49.7286,17.3211-63.6971-7.8225s2.235-56.9921,7.2636-69.2846,18.4386-31.29,49.7286-30.1723,34.3092,11.9343,29.2444,30.1723C666.5225,306.0575,664.4665,322.82,656.0854,339.5823ZM320.2787,712.2662c-.5588,8.94-30.7312,15.0861-35.76,8.94s-26.82-48.0523-45.4516-75.99-17.128-42.4647,19.1906-45.2585,52.5221-8.94,52.5221-8.94C309.2492,651.6551,320.8375,703.3263,320.2787,712.2662ZM309.1038,493.9408s51.9635,8.7955,100.7349,9.3542,66.8891-27.9373,104.325-35.201,66.4909,42.4647,53.0809,60.5392-97.2219,29.419-185.5037,34.4476S309.1038,493.9408,309.1038,493.9408Zm168.7415-261.685s65.9321,6.7521,74.3133,23.5145,23.4674,85.4882,15.086,116.2193c-3.9111,14.5274-45.8172,6.1462-68.1669,0s-37.9949-15.0862-29.6137-37.4361S478.9628,268.5271,477.8453,232.2558Zm-4.47,147.7826c25.1436.2264,19.5561,41.68,16.7623,57.3245s1.1175,30.7311-68.7259,30.7311-94.4281-30.7311-94.4281-30.7311C384.5345,392.5917,448.2318,379.812,473.3753,380.0384ZM470.7629,73.0958S500.087,140.07,512.3959,166.86s-39.8228,48.5112-91.9543,41.9948-84.3518-37.2885-91.9541-46.7013ZM105.2134,356.5611c0-30.41,34.297-73.129,87.8767-109.3314s78.9213-58.6481,128.5187-47.7873,101.3669,30.7721,112.59,45.2531c32.5821,37.6506,30.41,83.99,7.6024,99.1948s-212.1464,82.9036-262.83,98.4706-73.7579-11.9468-73.7579-34.7543Zm0,127.0655c0-5.7837,9.3192-12.6588,20.9027-12.6588H157.25V478.82a18.0274,18.0274,0,0,0,6.1584-1.3358c22.8087-8.7,71.31-26.0672,87.96-20.2835,16.6667,5.8,15.9334,28.967,30.4172,52.1342s9.4166,35.4838-9.7752,52.1343c-26.4257,25.7086-59.01,26.4255-70.5931,18.4587s-47.0675-18.1-64.0762-22.8088c-17.0252-4.7083-32.1279-11.5835-32.1279-16.65ZM172.784,960.8982c-43.5937,0-67.57-23.25-67.57-37.7812V882.43c0-9.4454,5.8418-22.2484,43.5937-28.336,38.8523-6.2651,48.68,20.3437,53.7658,50.1328S216.3779,960.8982,172.784,960.8982Zm-67.57-137.6875V584.9986c72.8625,20.2734,133.8535,77.8353,133.8535,153.4984S105.2138,823.2107,105.2138,823.2107ZM347.0986,944.42a16.4778,16.4778,0,0,1-16.4779,16.4779H237.9326a13.466,13.466,0,0,1-12.5989-18.2224c7.87-20.8631,20.4638-52.9354,25.6605-58.8744,7.8224-8.94,32.4073-1.1176,55.8747-1.6763a103.8836,103.8836,0,0,0,40.23-8.94ZM295.694,849.7178H214.6758s20.6735-28.496,32.4073-49.17,33.5245-54.7572,63.1382-54.7572,36.8773,39.1123,36.8773,64.8146S330.3363,849.7178,295.694,849.7178Zm52.5221-113.9842h-7.2638s-2.235-63.6971,0-102.2507,73.7545-37.9947,73.7545-37.9947C346.54,644.6578,348.2161,735.7336,348.2161,735.7336ZM660.5737,960.8993H642.7663V738.5141A131.036,131.036,0,0,0,511.73,607.478h0a131.0359,131.0359,0,0,0-131.036,131.0361V960.8993H362.887V733.8383A148.8432,148.8432,0,0,1,511.73,584.9951h0A148.8433,148.8433,0,0,1,660.5737,733.8383ZM613.0619,593.8119S689.61,573.1383,737.1037,615.603c21.7911,18.9975,26.261,36.3186,0,50.8459S676.759,697.18,676.759,697.18,662.2315,637.0009,613.0619,593.8119Zm177.246,346.9148a20.1714,20.1714,0,0,1-20.1714,20.1715H691.002a14.243,14.243,0,0,1-14.243-14.2429V770.3759C719.7824,808.3706,790.3079,888.83,790.3079,915.65Zm104.4787-28.5978a48.7694,48.7694,0,0,1-48.7695,48.7693H824.4538a26.9153,26.9153,0,0,1-26.733-30.2644c13.43-104.8177,97.0658-90.52,97.0658-90.52Zm0-145.8438c0,19.2852-25.0113,55.4172-70.8762,78.4065a43.015,43.015,0,0,1-49.5365-8.1655l-80.65-80.3a26.8509,26.8509,0,0,1,2.4263-40.174,363.725,363.725,0,0,1,75.7365-45.76,270.2266,270.2266,0,0,1,56.1181-17.5078,55.71,55.71,0,0,1,66.7813,54.5533Zm0-158.2065a21.9076,21.9076,0,0,1-19.57,21.791c-16.4411,1.7638-40.3779,4.3971-60.3159,6.851-34.0957,4.1964-46.1606-39.3414-46.1606-88.6494s7.8682-84.453,59.799-84.453h48.8605a17.3873,17.3873,0,0,1,17.3872,17.3873Zm0-188.4425a15.0205,15.0205,0,0,1-15.6152,15.0205c-27.0663-1.07-85.8557,1.8956-148.7233,38.7587a13.9852,13.9852,0,0,1-17.9108-3.22c-12.3439-15.17-33.9124-49.8172-33.9124-106.7223,0-57.7553,29.7925-107.0032,53.3955-133.34a19.29,19.29,0,0,1,27.3425-1.4041L887.4061,345.07a22.5336,22.5336,0,0,1,7.38,16.678Z" transform="translate(-66.1127)"/><path class="cls-2" d="M148.8075,854.0935c-37.7519,6.0876-43.5937,18.8906-43.5937,28.336V923.117c0,14.5312,23.9765,37.7812,67.57,37.7812s34.8752-26.8828,29.7893-56.6719S187.66,847.8284,148.8075,854.0935Z" transform="translate(-66.1127)"/><path class="cls-3" d="M239.0673,738.497c0-75.6631-60.991-133.225-133.8535-153.4984V823.2107S239.0673,814.16,239.0673,738.497Z" transform="translate(-66.1127)"/><path class="cls-2" d="M137.3413,557.12c17.0087,4.7084,52.4926,14.8421,64.0762,22.8088s44.1674,7.25,70.5931-18.4587c19.1918-16.65,24.2586-28.9672,9.7752-52.1343s-13.75-46.3343-30.4172-52.1342c-16.65-5.7837-65.1515,11.5835-87.96,20.2835A18.0274,18.0274,0,0,1,157.25,478.82v-7.8526H126.1161c-11.5835,0-20.9027,6.8751-20.9027,12.6588v56.8426C105.2134,545.536,120.3161,552.4112,137.3413,557.12Z" transform="translate(-66.1127)"/><path class="cls-4" d="M178.9713,442.3609c50.6834-15.567,240.0221-83.2657,262.83-98.4706s24.98-61.5442-7.6024-99.1948c-11.223-14.481-62.9925-34.3924-112.59-45.2531S246.67,211.0272,193.09,247.23s-87.8767,78.9213-87.8767,109.3314v51.0455C105.2134,430.4141,128.2878,457.928,178.9713,442.3609Z" transform="translate(-66.1127)"/><path class="cls-2" d="M420.4416,208.8551c52.1315,6.5164,104.2631-15.2051,91.9543-41.9948s-41.633-93.7645-41.633-93.7645l-142.2754,89.058C336.09,171.5666,368.31,202.3386,420.4416,208.8551Z" transform="translate(-66.1127)"/><path class="cls-5" d="M654.6714,213.5614c56.8381.5052,79.6456-7.6025,79.6456-7.6025S600.73,87.2148,569.2337,59.7009s-75.3011-28.962-74.2151,4.7064c1.81,8.6885,33.3063,76.3871,47.7873,104.987S593.1273,210.6652,654.6714,213.5614Z" transform="translate(-66.1127)"/><path class="cls-4" d="M759.3629,228.7293a19.29,19.29,0,0,0-27.3425,1.4041c-23.603,26.3368-53.3955,75.5847-53.3955,133.34,0,56.9051,21.5685,91.5527,33.9124,106.7223a13.9852,13.9852,0,0,0,17.9108,3.22c62.8676-36.8631,121.657-39.8285,148.7233-38.7587a15.0205,15.0205,0,0,0,15.6152-15.0205V361.7479a22.5336,22.5336,0,0,0-7.38-16.678Z" transform="translate(-66.1127)"/><path class="cls-3" d="M877.3994,463.6182h-48.86c-51.9308,0-59.799,35.145-59.799,84.453s12.0649,92.8458,46.1606,88.6494c19.938-2.4539,43.8748-5.0872,60.3159-6.851a21.9076,21.9076,0,0,0,19.57-21.791V481.0055A17.3873,17.3873,0,0,0,877.3994,463.6182Z" transform="translate(-66.1127)"/><path class="cls-5" d="M828.0053,652.7841a270.2266,270.2266,0,0,0-56.1181,17.5078,363.725,363.725,0,0,0-75.7365,45.76,26.8509,26.8509,0,0,0-2.4263,40.174l80.65,80.3a43.015,43.015,0,0,0,49.5365,8.1655c45.8649-22.9893,70.8762-59.1213,70.8762-78.4065V707.3374A55.71,55.71,0,0,0,828.0053,652.7841Z" transform="translate(-66.1127)"/><path class="cls-3" d="M797.7208,930.6338a26.9153,26.9153,0,0,0,26.733,30.2644h21.5633a48.7694,48.7694,0,0,0,48.7695-48.7693V840.1136S811.1513,825.8161,797.7208,930.6338Z" transform="translate(-66.1127)"/><path class="cls-4" d="M676.759,770.3759V946.6553a14.243,14.243,0,0,0,14.243,14.2429h79.1345a20.1714,20.1714,0,0,0,20.1714-20.1715V915.65C790.3079,888.83,719.7824,808.3706,676.759,770.3759Z" transform="translate(-66.1127)"/><path class="cls-2" d="M737.1037,666.4489c26.261-14.5273,21.7911-31.8484,0-50.8459-47.4937-42.4647-124.0418-21.7911-124.0418-21.7911,49.17,43.189,63.6971,103.3681,63.6971,103.3681S710.8425,680.9764,737.1037,666.4489Z" transform="translate(-66.1127)"/><path class="cls-2" d="M616.9732,523.9686s-8.94,37.436,25.7024,40.7885c26.162,2.5319,60.291,4.1076,81.4488,8.0967a13.2737,13.2737,0,0,0,15.7729-13.0232V503.8538c0-15.6449-24.5849-11.7337-44.1408,4.47S643.2342,532.35,616.9732,523.9686Z" transform="translate(-66.1127)"/><path class="cls-2" d="M663.3492,392.1044c-8.94-27.9373-27.9374-28.4961-54.1986-19.5561s-40.7883,32.9661-20.6736,79.9008,56.4336,51.6935,84.9294,41.4917,15.1677-28.5336,4.5109-47.0257S663.3492,392.1044,663.3492,392.1044Z" transform="translate(-66.1127)"/><path class="cls-3" d="M649.3805,232.3029c-31.29-1.1175-44.7,17.88-49.7286,30.1723s-21.2323,44.141-7.2636,69.2846,55.3159,24.5849,63.6971,7.8225,10.4371-33.5248,22.5395-77.1071C683.69,244.2372,680.67,233.42,649.3805,232.3029Z" transform="translate(-66.1127)"/><path class="cls-2" d="M499.0777,371.99c22.35,6.1462,64.2558,14.5274,68.1669,0,8.3814-30.7311-6.7049-99.4569-15.086-116.2193s-74.3133-23.5145-74.3133-23.5145c1.1175,36.2713,0,79.9479-8.3813,102.2977S476.7278,365.8433,499.0777,371.99Z" transform="translate(-66.1127)"/><path class="cls-2" d="M421.4117,468.094c69.8434,0,65.9323-15.0861,68.7259-30.7311s8.3813-57.0981-16.7623-57.3245-88.8408,12.5533-146.3917,57.3245C326.9836,437.3629,351.5685,468.094,421.4117,468.094Z" transform="translate(-66.1127)"/><path class="cls-5" d="M381.7409,563.0808c88.2818-5.0286,172.0938-16.3732,185.5037-34.4476S551.6,460.83,514.1637,468.094s-55.5538,35.76-104.325,35.201-100.7349-9.3542-100.7349-9.3542S293.459,568.11,381.7409,563.0808Z" transform="translate(-66.1127)"/><path class="cls-5" d="M258.2579,599.9581c-36.3186,2.7938-37.8223,17.3211-19.1906,45.2585s40.4231,69.8433,45.4516,75.99,35.201,0,35.76-8.94-11.03-60.6111-9.4987-121.248C310.78,591.0182,294.5763,597.1644,258.2579,599.9581Z" transform="translate(-66.1127)"/><path class="cls-2" d="M414.7068,595.4882s-71.5195-.5588-73.7545,37.9947,0,102.2507,0,102.2507h7.2638S346.54,644.6578,414.7068,595.4882Z" transform="translate(-66.1127)"/><path class="cls-2" d="M310.2213,745.791c-29.6137,0-51.4047,34.0835-63.1382,54.7572s-32.4073,49.17-32.4073,49.17H295.694c34.6423,0,51.4046-13.41,51.4046-39.1122S339.8348,745.791,310.2213,745.791Z" transform="translate(-66.1127)"/><path class="cls-5" d="M250.9942,883.8014c-5.1967,5.939-17.7907,38.0113-25.6605,58.8744a13.466,13.466,0,0,0,12.5989,18.2224h92.6881A16.4778,16.4778,0,0,0,347.0986,944.42V873.1852a103.8836,103.8836,0,0,1-40.23,8.94C283.4015,882.6838,258.8166,874.8614,250.9942,883.8014Z" transform="translate(-66.1127)"/><path class="cls-2" d="M511.73,584.9951h0A148.8432,148.8432,0,0,0,362.887,733.8383v227.061h17.8072V738.5141A131.0359,131.0359,0,0,1,511.73,607.478h0A131.036,131.036,0,0,1,642.7663,738.5141V960.8993h17.8074V733.8383A148.8433,148.8433,0,0,0,511.73,584.9951Z" transform="translate(-66.1127)"/></svg>