<?xml version="1.0" encoding="utf-8"?>
<svg width="900" zoomAndPan="magnify" viewBox="0 0 675 299.999988" height="400" preserveAspectRatio="xMidYMid meet" version="1.0" xmlns="http://www.w3.org/2000/svg">
  <defs>
    <clipPath id="id1">
      <path d="M 57.464844 48 L 365.714844 48 L 365.714844 192 L 57.464844 192 Z M 57.464844 48 " clip-rule="nonzero"/>
    </clipPath>
    <clipPath id="id2">
      <path d="M 57.464844 209 L 357 209 L 357 233 L 57.464844 233 Z M 57.464844 209 " clip-rule="nonzero"/>
    </clipPath>
    <clipPath id="id3">
      <path d="M 59 240 L 72 240 L 72 254.980469 L 59 254.980469 Z M 59 240 " clip-rule="nonzero"/>
    </clipPath>
    <clipPath id="id4">
      <path d="M 74 240 L 77 240 L 77 254.980469 L 74 254.980469 Z M 74 240 " clip-rule="nonzero"/>
    </clipPath>
    <clipPath id="id5">
      <path d="M 80 240 L 93 240 L 93 254.980469 L 80 254.980469 Z M 80 240 " clip-rule="nonzero"/>
    </clipPath>
    <clipPath id="id6">
      <path d="M 95 240 L 110 240 L 110 254.980469 L 95 254.980469 Z M 95 240 " clip-rule="nonzero"/>
    </clipPath>
    <clipPath id="id7">
      <path d="M 112 240 L 126 240 L 126 254.980469 L 112 254.980469 Z M 112 240 " clip-rule="nonzero"/>
    </clipPath>
    <clipPath id="id8">
      <path d="M 127 240 L 143 240 L 143 254.980469 L 127 254.980469 Z M 127 240 " clip-rule="nonzero"/>
    </clipPath>
    <clipPath id="id9">
      <path d="M 145 240 L 160 240 L 160 254.980469 L 145 254.980469 Z M 145 240 " clip-rule="nonzero"/>
    </clipPath>
    <clipPath id="id10">
      <path d="M 168 240 L 184 240 L 184 254.980469 L 168 254.980469 Z M 168 240 " clip-rule="nonzero"/>
    </clipPath>
    <clipPath id="id11">
      <path d="M 186 240 L 198 240 L 198 254.980469 L 186 254.980469 Z M 186 240 " clip-rule="nonzero"/>
    </clipPath>
    <clipPath id="id12">
      <path d="M 205 240 L 217 240 L 217 254.980469 L 205 254.980469 Z M 205 240 " clip-rule="nonzero"/>
    </clipPath>
    <clipPath id="id13">
      <path d="M 217 240 L 233 240 L 233 254.980469 L 217 254.980469 Z M 217 240 " clip-rule="nonzero"/>
    </clipPath>
    <clipPath id="id14">
      <path d="M 233 240 L 246 240 L 246 254.980469 L 233 254.980469 Z M 233 240 " clip-rule="nonzero"/>
    </clipPath>
    <clipPath id="id15">
      <path d="M 249 240 L 263 240 L 263 254.980469 L 249 254.980469 Z M 249 240 " clip-rule="nonzero"/>
    </clipPath>
    <clipPath id="id16">
      <path d="M 265 240 L 268 240 L 268 254.980469 L 265 254.980469 Z M 265 240 " clip-rule="nonzero"/>
    </clipPath>
    <clipPath id="id17">
      <path d="M 276 240 L 292 240 L 292 254.980469 L 276 254.980469 Z M 276 240 " clip-rule="nonzero"/>
    </clipPath>
    <clipPath id="id18">
      <path d="M 293 240 L 306 240 L 306 254.980469 L 293 254.980469 Z M 293 240 " clip-rule="nonzero"/>
    </clipPath>
    <clipPath id="id19">
      <path d="M 307 240 L 323 240 L 323 254.980469 L 307 254.980469 Z M 307 240 " clip-rule="nonzero"/>
    </clipPath>
    <clipPath id="id20">
      <path d="M 324 240 L 337 240 L 337 254.980469 L 324 254.980469 Z M 324 240 " clip-rule="nonzero"/>
    </clipPath>
    <clipPath id="id21">
      <path d="M 339 240 L 343 240 L 343 254.980469 L 339 254.980469 Z M 339 240 " clip-rule="nonzero"/>
    </clipPath>
    <clipPath id="id22">
      <path d="M 344 240 L 360 240 L 360 254.980469 L 344 254.980469 Z M 344 240 " clip-rule="nonzero"/>
    </clipPath>
  </defs>
  <path stroke-linecap="butt" transform="matrix(0.000000000000000092, 1.498756, -1.5, 0.000000000000000092, 388.701779, 29.797036)" fill="none" stroke-linejoin="miter" d="M -0.000107454 -0.000897629 L 160.137931 -0.000897629 " stroke="#686d6a" stroke-width="1" stroke-opacity="1" stroke-miterlimit="4"/>
  <g clip-path="url(#id1)">
    <path fill="#686d6a" d="M 277.230469 165.476562 L 277.230469 165.703125 C 277.230469 180.589844 266.394531 191.53125 248.78125 191.53125 C 234.554688 191.53125 224.730469 185.890625 217.957031 177.882812 L 229.925781 166.492188 C 235.34375 172.582031 240.992188 175.964844 249.007812 175.964844 C 255.554688 175.964844 260.183594 172.242188 260.183594 166.378906 C 260.097656 166.222656 261.460938 156.117188 244.714844 156.117188 L 237.492188 156.117188 L 234.78125 145.058594 L 260.132812 119.582031 L 249.972656 126.113281 L 222.589844 126.113281 L 222.589844 111.226562 L 275.988281 111.226562 L 275.988281 124.308594 L 256.007812 143.371094 C 266.730469 145.175781 277.230469 150.8125 277.230469 165.476562 M 227.667969 75.125 C 227.667969 67.976562 232.796875 62.222656 239.996094 62.222656 L 248.109375 62.222656 L 245.984375 63.28125 C 246.082031 82.875 245.597656 85.34375 246.847656 88.207031 L 240.085938 88.203125 C 232.886719 88.203125 227.667969 82.359375 227.667969 75.214844 Z M 239.996094 91.488281 L 247.199219 91.488281 L 247.199219 88.894531 C 247.726562 89.804688 248.433594 90.515625 249.472656 91.007812 C 251.765625 92.097656 250.101562 91.414062 315.8125 91.613281 L 315.8125 58.941406 L 312.347656 58.941406 L 312.347656 88.152344 C 312.347656 88.152344 252.261719 88.382812 251.121094 87.871094 C 250.128906 87.425781 249.769531 86.402344 249.601562 85.316406 C 249.339844 83.550781 249.5 83.519531 249.453125 58.941406 L 240.085938 58.941406 C 230.503906 58.941406 223.980469 66.539062 223.980469 75.214844 L 223.980469 75.304688 C 223.980469 83.980469 230.414062 91.488281 239.996094 91.488281 M 341.355469 55.476562 L 333.761719 55.476562 C 333.929688 52.964844 332.765625 48.277344 337.882812 48.277344 L 340.328125 48.277344 L 340.328125 50.691406 C 337.960938 50.867188 336.597656 50.117188 336.597656 52.007812 L 336.597656 52.808594 L 341.355469 52.808594 Z M 350.132812 91.96875 C 349.210938 91.96875 348.269531 91.839844 347.316406 91.578125 L 348.226562 88.246094 C 349.796875 88.691406 351.800781 88.71875 352.625 87.316406 C 353.589844 85.65625 353.246094 85.070312 353.296875 58.941406 L 356.761719 58.941406 C 356.664062 83.332031 357 84.011719 356.4375 86.839844 C 355.773438 90.148438 353.769531 91.96875 350.132812 91.96875 M 249.453125 55.476562 L 245.984375 55.476562 L 245.984375 52.015625 L 249.453125 52.015625 Z M 325.738281 67.425781 C 327.363281 64.253906 330.777344 62.492188 334.269531 62.453125 L 334.269531 62.449219 L 339.871094 62.449219 L 337.890625 63.433594 L 337.890625 78.984375 C 335.164062 78.902344 333.246094 79.242188 330.71875 78.441406 C 327.269531 77.355469 324.933594 74.699219 324.933594 70.84375 C 324.933594 69.605469 325.203125 68.464844 325.738281 67.425781 M 325.738281 79.699219 C 330.25 82.917969 336.402344 82.382812 336.726562 82.445312 L 337.890625 80.003906 C 337.703125 82.371094 338.542969 85.679688 336.332031 87.335938 C 334.460938 88.734375 331.128906 88.691406 329.074219 88.203125 C 328.222656 88 327.246094 87.652344 326.148438 87.164062 L 325.066406 90.496094 C 327.261719 91.308594 329.363281 91.96875 331.695312 91.96875 C 335.074219 91.96875 337.527344 91.167969 339.0625 89.566406 C 340.589844 87.964844 341.355469 85.808594 341.355469 83.09375 L 341.355469 58.941406 C 337.089844 59.078125 333.855469 58.511719 329.960938 59.851562 C 319.53125 63.441406 319.320312 75.125 325.738281 79.699219 M 242.519531 55.476562 L 239.050781 55.476562 L 239.050781 52.015625 L 242.519531 52.015625 Z M 206.640625 58.90625 L 210.222656 58.90625 L 210.222656 91.421875 L 207.292969 91.421875 L 184.238281 62.171875 L 186.277344 66.914062 L 186.277344 91.421875 L 182.695312 91.421875 L 182.695312 58.90625 L 186.136719 58.90625 L 208.148438 86.878906 L 206.640625 82.886719 Z M 71.460938 91.652344 L 57.464844 58.90625 L 61.554688 58.90625 C 61.765625 59.410156 72.917969 86.394531 74.050781 89.132812 L 73.695312 85.558594 L 84.757812 58.90625 L 88.707031 58.90625 L 74.714844 91.652344 Z M 133.480469 58.90625 L 137.152344 58.90625 L 137.152344 91.417969 L 133.480469 91.417969 Z M 172.871094 75.253906 C 172.871094 82.640625 167.574219 88.585938 160.132812 88.585938 C 152.695312 88.585938 147.300781 82.546875 147.300781 75.164062 L 147.300781 75.070312 C 147.300781 67.683594 152.601562 61.738281 160.039062 61.738281 C 167.480469 61.738281 172.871094 67.777344 172.871094 75.164062 Z M 160.132812 58.347656 C 150.230469 58.347656 143.488281 66.199219 143.488281 75.164062 L 143.488281 75.253906 C 143.488281 84.21875 150.136719 91.976562 160.039062 91.976562 C 169.945312 91.976562 176.6875 84.128906 176.6875 75.164062 L 176.6875 75.070312 C 176.6875 66.105469 170.035156 58.347656 160.132812 58.347656 M 127.417969 82.59375 L 127.417969 82.6875 C 127.417969 88.257812 122.769531 91.882812 116.308594 91.882812 C 111.144531 91.882812 106.914062 90.164062 103.011719 86.679688 L 105.289062 83.988281 C 108.683594 87.050781 111.9375 88.585938 116.449219 88.585938 C 120.816406 88.585938 123.699219 86.265625 123.699219 83.058594 L 123.699219 82.964844 C 123.699219 73.890625 104.3125 79.878906 104.3125 67.40625 L 104.3125 67.3125 C 104.3125 62.203125 108.820312 58.441406 115.007812 58.441406 C 119.746094 58.441406 123.140625 59.789062 126.441406 62.4375 L 124.304688 65.269531 C 116.925781 59.261719 107.984375 61.5625 107.984375 66.988281 L 107.984375 67.082031 C 107.984375 70.144531 109.65625 71.863281 116.820312 73.398438 C 124.074219 74.976562 127.417969 77.625 127.417969 82.59375 M 97.371094 91.421875 L 93.699219 91.421875 L 93.699219 58.90625 L 97.371094 58.90625 Z M 311.136719 95.074219 L 314.605469 95.074219 L 314.605469 98.539062 L 311.136719 98.539062 Z M 304.203125 95.074219 L 307.671875 95.074219 L 307.671875 98.539062 L 304.203125 98.539062 Z M 86.53125 175.175781 L 116.664062 175.175781 L 116.664062 190.179688 L 58.179688 190.179688 L 58.179688 176.417969 C 87.402344 151.59375 98.148438 146.742188 98.148438 135.925781 C 98.148438 129.273438 93.742188 125.664062 87.535156 125.664062 C 81.4375 125.664062 77.261719 129.042969 71.390625 136.261719 L 59.195312 126.453125 C 66.988281 115.851562 74.550781 110.097656 88.664062 110.097656 C 105.035156 110.097656 115.875 119.683594 115.875 134.460938 L 115.875 134.683594 C 115.875 153.210938 101.859375 159.183594 77.828125 178.570312 L 74.472656 181.15625 Z M 347.539062 150.925781 C 347.539062 164.460938 337.828125 175.515625 323.828125 175.515625 C 309.828125 175.515625 299.894531 164.234375 299.894531 150.699219 L 299.894531 150.476562 C 299.894531 136.941406 309.605469 125.886719 323.601562 125.886719 C 337.601562 125.886719 347.539062 137.167969 347.539062 150.699219 Z M 323.828125 109.871094 C 299.441406 109.871094 281.714844 128.257812 281.714844 150.699219 L 281.714844 150.925781 C 281.714844 173.371094 299.214844 191.53125 323.601562 191.53125 C 347.988281 191.53125 365.714844 173.144531 365.714844 150.699219 L 365.714844 150.476562 C 365.714844 128.03125 348.214844 109.871094 323.828125 109.871094 " fill-opacity="1" fill-rule="nonzero"/>
  </g>
  <path fill="#686d6a" d="M 163.90625 104.679688 L 167.910156 108.515625 L 164.066406 112.515625 L 160.066406 108.675781 " fill-opacity="1" fill-rule="nonzero"/>
  <path fill="#686d6a" d="M 173.066406 108.675781 L 177.066406 112.515625 L 180.910156 108.515625 L 176.90625 104.679688 " fill-opacity="1" fill-rule="nonzero"/>
  <path fill="#686d6a" d="M 167.429688 113.714844 L 170.546875 116.703125 L 173.535156 113.589844 L 170.421875 110.601562 " fill-opacity="1" fill-rule="nonzero"/>
  <path fill="#686d6a" d="M 178.855469 115.425781 L 181.972656 118.414062 L 184.960938 115.300781 L 181.84375 112.3125 " fill-opacity="1" fill-rule="nonzero"/>
  <path fill="#686d6a" d="M 162.335938 118.476562 L 165.449219 121.464844 L 168.441406 118.351562 L 165.328125 115.363281 " fill-opacity="1" fill-rule="nonzero"/>
  <path fill="#686d6a" d="M 172.792969 118.839844 L 175.90625 121.828125 L 178.898438 118.714844 L 175.78125 115.726562 " fill-opacity="1" fill-rule="nonzero"/>
  <path fill="#686d6a" d="M 168.699219 122.417969 L 170.894531 124.519531 L 172.996094 122.332031 L 170.804688 120.226562 " fill-opacity="1" fill-rule="nonzero"/>
  <path fill="#686d6a" d="M 176.96875 124.070312 L 179.164062 126.171875 L 181.265625 123.980469 L 179.074219 121.878906 " fill-opacity="1" fill-rule="nonzero"/>
  <path fill="#686d6a" d="M 195.03125 107.410156 L 201.828125 106.164062 L 203.074219 112.957031 L 196.273438 114.207031 Z M 195.03125 107.410156 " fill-opacity="1" fill-rule="nonzero"/>
  <path fill="#686d6a" d="M 186.15625 110.257812 L 191.609375 109.257812 L 192.609375 114.710938 L 187.152344 115.710938 Z M 186.15625 110.257812 " fill-opacity="1" fill-rule="nonzero"/>
  <path fill="#686d6a" d="M 196.699219 117.855469 L 202.15625 116.851562 L 203.15625 122.304688 L 197.699219 123.304688 Z M 196.699219 117.855469 " fill-opacity="1" fill-rule="nonzero"/>
  <path fill="#686d6a" d="M 189.179688 118.652344 L 193.425781 117.875 L 194.203125 122.117188 L 189.953125 122.894531 Z M 189.179688 118.652344 " fill-opacity="1" fill-rule="nonzero"/>
  <path fill="#686d6a" d="M 197.441406 126.714844 L 201.691406 125.9375 L 202.46875 130.179688 L 198.21875 130.960938 Z M 197.441406 126.714844 " fill-opacity="1" fill-rule="nonzero"/>
  <path fill="#686d6a" d="M 182.8125 120.378906 L 187.0625 119.597656 L 187.839844 123.84375 L 183.589844 124.621094 Z M 182.8125 120.378906 " fill-opacity="1" fill-rule="nonzero"/>
  <path fill="#686d6a" d="M 190.523438 125.9375 L 194.769531 125.160156 L 195.546875 129.402344 L 191.300781 130.183594 Z M 190.523438 125.9375 " fill-opacity="1" fill-rule="nonzero"/>
  <path fill="#686d6a" d="M 185.109375 126.449219 L 188.097656 125.902344 L 188.644531 128.886719 L 185.65625 129.4375 Z M 185.109375 126.449219 " fill-opacity="1" fill-rule="nonzero"/>
  <path fill="#686d6a" d="M 190.851562 132.625 L 193.839844 132.078125 L 194.382812 135.0625 L 191.394531 135.605469 Z M 190.851562 132.625 " fill-opacity="1" fill-rule="nonzero"/>
  <path fill="#686d6a" d="M 215.253906 129.667969 L 212.28125 135.90625 L 218.527344 138.871094 L 221.496094 132.636719 " fill-opacity="1" fill-rule="nonzero"/>
  <path fill="#686d6a" d="M 206.390625 126.785156 L 204.007812 131.789062 L 209.015625 134.167969 L 211.398438 129.164062 " fill-opacity="1" fill-rule="nonzero"/>
  <path fill="#686d6a" d="M 210.488281 139.109375 L 208.105469 144.117188 L 213.117188 146.496094 L 215.5 141.492188 " fill-opacity="1" fill-rule="nonzero"/>
  <path fill="#686d6a" d="M 203.925781 135.359375 L 202.070312 139.253906 L 205.972656 141.109375 L 207.828125 137.210938 " fill-opacity="1" fill-rule="nonzero"/>
  <path fill="#686d6a" d="M 205.90625 146.730469 L 204.050781 150.625 L 207.949219 152.480469 L 209.808594 148.582031 " fill-opacity="1" fill-rule="nonzero"/>
  <path fill="#686d6a" d="M 197.753906 133.039062 L 195.894531 136.933594 L 199.796875 138.789062 L 201.652344 134.890625 " fill-opacity="1" fill-rule="nonzero"/>
  <path fill="#686d6a" d="M 200.753906 142.054688 L 198.894531 145.949219 L 202.796875 147.804688 L 204.652344 143.90625 " fill-opacity="1" fill-rule="nonzero"/>
  <path fill="#686d6a" d="M 196.0625 139.304688 L 194.753906 142.046875 L 197.496094 143.351562 L 198.804688 140.609375 " fill-opacity="1" fill-rule="nonzero"/>
  <path fill="#686d6a" d="M 195.792969 150.394531 L 197.09375 147.65625 L 199.835938 148.960938 L 198.535156 151.703125 Z M 195.792969 150.394531 " fill-opacity="1" fill-rule="nonzero"/>
  <path fill="#686d6a" d="M 218.617188 159.535156 L 212.554688 162.855469 L 215.882812 168.914062 L 221.945312 165.589844 " fill-opacity="1" fill-rule="nonzero"/>
  <path fill="#686d6a" d="M 213.121094 152.019531 L 208.257812 154.683594 L 210.925781 159.542969 L 215.789062 156.875 " fill-opacity="1" fill-rule="nonzero"/>
  <path fill="#686d6a" d="M 209.226562 164.410156 L 204.359375 167.074219 L 207.03125 171.933594 L 211.890625 169.269531 " fill-opacity="1" fill-rule="nonzero"/>
  <path fill="#686d6a" d="M 206.101562 157.53125 L 202.3125 159.605469 L 204.390625 163.386719 L 208.179688 161.3125 " fill-opacity="1" fill-rule="nonzero"/>
  <path fill="#686d6a" d="M 201.046875 167.910156 L 197.257812 169.984375 L 199.335938 173.765625 L 203.125 171.691406 " fill-opacity="1" fill-rule="nonzero"/>
  <path fill="#686d6a" d="M 202.453125 152.039062 L 198.664062 154.113281 L 200.742188 157.898438 L 204.53125 155.824219 " fill-opacity="1" fill-rule="nonzero"/>
  <path fill="#686d6a" d="M 199.605469 161.105469 L 195.816406 163.179688 L 197.894531 166.960938 L 201.679688 164.886719 " fill-opacity="1" fill-rule="nonzero"/>
  <path fill="#686d6a" d="M 197.40625 156.132812 L 194.742188 157.59375 L 196.207031 160.253906 L 198.867188 158.796875 " fill-opacity="1" fill-rule="nonzero"/>
  <path fill="#686d6a" d="M 193.355469 163.519531 L 190.691406 164.980469 L 192.152344 167.640625 L 194.816406 166.183594 " fill-opacity="1" fill-rule="nonzero"/>
  <path fill="#686d6a" d="M 196.136719 191.707031 L 196.984375 184.851562 L 203.84375 185.699219 L 203 192.558594 Z M 196.136719 191.707031 " fill-opacity="1" fill-rule="nonzero"/>
  <path fill="#686d6a" d="M 197.617188 181.238281 L 198.296875 175.738281 L 203.800781 176.421875 L 203.121094 181.917969 Z M 197.617188 181.238281 " fill-opacity="1" fill-rule="nonzero"/>
  <path fill="#686d6a" d="M 187.199219 189.011719 L 187.878906 183.511719 L 193.382812 184.191406 L 192.703125 189.691406 Z M 187.199219 189.011719 " fill-opacity="1" fill-rule="nonzero"/>
  <path fill="#686d6a" d="M 190.066406 180.550781 L 190.59375 176.269531 L 194.882812 176.800781 L 194.351562 181.082031 Z M 190.066406 180.550781 " fill-opacity="1" fill-rule="nonzero"/>
  <path fill="#686d6a" d="M 179.886719 186.007812 L 180.414062 181.726562 L 184.699219 182.257812 L 184.171875 186.539062 Z M 179.886719 186.007812 " fill-opacity="1" fill-rule="nonzero"/>
  <path fill="#686d6a" d="M 190.320312 173.953125 L 190.847656 169.671875 L 195.136719 170.203125 L 194.605469 174.488281 Z M 190.320312 173.953125 " fill-opacity="1" fill-rule="nonzero"/>
  <path fill="#686d6a" d="M 182.703125 179.636719 L 183.230469 175.355469 L 187.519531 175.886719 L 186.988281 180.167969 Z M 182.703125 179.636719 " fill-opacity="1" fill-rule="nonzero"/>
  <path fill="#686d6a" d="M 185.265625 173.222656 L 185.636719 170.210938 L 188.648438 170.582031 L 188.277344 173.59375 Z M 185.265625 173.222656 " fill-opacity="1" fill-rule="nonzero"/>
  <path fill="#686d6a" d="M 177.644531 176.835938 L 178.015625 173.824219 L 181.03125 174.199219 L 180.660156 177.210938 Z M 177.644531 176.835938 " fill-opacity="1" fill-rule="nonzero"/>
  <path fill="#686d6a" d="M 176.542969 198.332031 L 171.472656 193.632812 L 166.769531 198.695312 L 171.835938 203.394531 " fill-opacity="1" fill-rule="nonzero"/>
  <path fill="#686d6a" d="M 175.609375 101.582031 L 170.539062 96.878906 L 165.835938 101.941406 L 170.902344 106.640625 " fill-opacity="1" fill-rule="nonzero"/>
  <path fill="#686d6a" d="M 181.949219 190.75 L 177.882812 186.976562 L 174.109375 191.039062 L 178.175781 194.808594 " fill-opacity="1" fill-rule="nonzero"/>
  <path fill="#686d6a" d="M 168.949219 190.964844 L 164.882812 187.195312 L 161.109375 191.253906 L 165.175781 195.023438 " fill-opacity="1" fill-rule="nonzero"/>
  <path fill="#686d6a" d="M 174.5 185.832031 L 171.332031 182.894531 L 168.394531 186.058594 L 171.558594 188.992188 " fill-opacity="1" fill-rule="nonzero"/>
  <path fill="#686d6a" d="M 163.046875 184.3125 L 159.882812 181.378906 L 156.945312 184.539062 L 160.109375 187.476562 " fill-opacity="1" fill-rule="nonzero"/>
  <path fill="#686d6a" d="M 178.5625 180.644531 L 175.398438 177.707031 L 172.460938 180.867188 L 175.625 183.804688 " fill-opacity="1" fill-rule="nonzero"/>
  <path fill="#686d6a" d="M 169.054688 180.800781 L 165.890625 177.863281 L 162.953125 181.027344 L 166.117188 183.960938 " fill-opacity="1" fill-rule="nonzero"/>
  <path fill="#686d6a" d="M 173.082031 177.152344 L 170.855469 175.085938 L 168.792969 177.3125 L 171.015625 179.375 " fill-opacity="1" fill-rule="nonzero"/>
  <path fill="#686d6a" d="M 164.789062 175.636719 L 162.5625 173.574219 L 160.496094 175.796875 L 162.722656 177.863281 " fill-opacity="1" fill-rule="nonzero"/>
  <path fill="#686d6a" d="M 138.871094 187.179688 L 145.652344 185.816406 L 147.007812 192.589844 L 140.226562 193.949219 Z M 138.871094 187.179688 " fill-opacity="1" fill-rule="nonzero"/>
  <path fill="#686d6a" d="M 149.308594 185.253906 L 154.746094 184.164062 L 155.832031 189.597656 L 150.394531 190.6875 Z M 149.308594 185.253906 " fill-opacity="1" fill-rule="nonzero"/>
  <path fill="#686d6a" d="M 138.644531 177.828125 L 144.082031 176.738281 L 145.171875 182.171875 L 139.734375 183.261719 Z M 138.644531 177.828125 " fill-opacity="1" fill-rule="nonzero"/>
  <path fill="#686d6a" d="M 147.589844 177.875 L 151.824219 177.027344 L 152.671875 181.257812 L 148.4375 182.105469 Z M 147.589844 177.875 " fill-opacity="1" fill-rule="nonzero"/>
  <path fill="#686d6a" d="M 153.925781 176.042969 L 158.160156 175.191406 L 159.007812 179.425781 L 154.773438 180.273438 Z M 153.925781 176.042969 " fill-opacity="1" fill-rule="nonzero"/>
  <path fill="#686d6a" d="M 146.121094 170.613281 L 150.355469 169.761719 L 151.203125 173.992188 L 146.96875 174.84375 Z M 146.121094 170.613281 " fill-opacity="1" fill-rule="nonzero"/>
  <path fill="#686d6a" d="M 153.03125 171.019531 L 156.011719 170.421875 L 156.605469 173.398438 L 153.628906 173.996094 Z M 153.03125 171.019531 " fill-opacity="1" fill-rule="nonzero"/>
  <path fill="#686d6a" d="M 147.195312 164.941406 L 150.171875 164.34375 L 150.769531 167.320312 L 147.789062 167.917969 Z M 147.195312 164.941406 " fill-opacity="1" fill-rule="nonzero"/>
  <path fill="#686d6a" d="M 126.417969 170.675781 L 129.285156 164.390625 L 122.992188 161.527344 L 120.125 167.808594 " fill-opacity="1" fill-rule="nonzero"/>
  <path fill="#686d6a" d="M 135.328125 173.410156 L 137.625 168.367188 L 132.578125 166.070312 L 130.277344 171.113281 " fill-opacity="1" fill-rule="nonzero"/>
  <path fill="#686d6a" d="M 131.023438 161.152344 L 133.324219 156.109375 L 128.273438 153.8125 L 125.976562 158.855469 " fill-opacity="1" fill-rule="nonzero"/>
  <path fill="#686d6a" d="M 133.714844 163.015625 L 135.503906 159.085938 L 139.433594 160.878906 L 137.644531 164.808594 Z M 133.714844 163.015625 " fill-opacity="1" fill-rule="nonzero"/>
  <path fill="#686d6a" d="M 142.910156 174.613281 L 144.699219 170.6875 L 140.769531 168.902344 L 138.976562 172.828125 " fill-opacity="1" fill-rule="nonzero"/>
  <path fill="#686d6a" d="M 131.558594 151.671875 L 133.347656 147.746094 L 137.273438 149.539062 L 135.484375 153.464844 Z M 131.558594 151.671875 " fill-opacity="1" fill-rule="nonzero"/>
  <path fill="#686d6a" d="M 139.9375 165.226562 L 141.726562 161.296875 L 145.652344 163.09375 L 143.863281 167.019531 Z M 139.9375 165.226562 " fill-opacity="1" fill-rule="nonzero"/>
  <path fill="#686d6a" d="M 136.785156 156.269531 L 138.574219 152.34375 L 142.503906 154.136719 L 140.710938 158.0625 Z M 136.785156 156.269531 " fill-opacity="1" fill-rule="nonzero"/>
  <path fill="#686d6a" d="M 145.449219 160.71875 L 146.707031 157.957031 L 143.941406 156.699219 L 142.683594 159.460938 " fill-opacity="1" fill-rule="nonzero"/>
  <path fill="#686d6a" d="M 144.269531 152.378906 L 145.53125 149.613281 L 142.765625 148.355469 L 141.503906 151.121094 " fill-opacity="1" fill-rule="nonzero"/>
  <path fill="#686d6a" d="M 122.558594 140.863281 L 128.566406 137.445312 L 125.136719 131.445312 L 119.132812 134.863281 " fill-opacity="1" fill-rule="nonzero"/>
  <path fill="#686d6a" d="M 128.179688 148.292969 L 133 145.546875 L 130.25 140.734375 L 125.433594 143.480469 " fill-opacity="1" fill-rule="nonzero"/>
  <path fill="#686d6a" d="M 131.871094 135.835938 L 136.691406 133.09375 L 133.941406 128.277344 L 129.121094 131.023438 " fill-opacity="1" fill-rule="nonzero"/>
  <path fill="#686d6a" d="M 135.109375 142.664062 L 138.859375 140.527344 L 136.722656 136.777344 L 132.96875 138.914062 " fill-opacity="1" fill-rule="nonzero"/>
  <path fill="#686d6a" d="M 139.992188 132.203125 L 143.742188 130.066406 L 141.601562 126.320312 L 137.851562 128.457031 " fill-opacity="1" fill-rule="nonzero"/>
  <path fill="#686d6a" d="M 138.847656 148.09375 L 142.597656 145.957031 L 140.460938 142.207031 L 136.707031 144.34375 " fill-opacity="1" fill-rule="nonzero"/>
  <path fill="#686d6a" d="M 141.542969 138.984375 L 145.296875 136.847656 L 143.15625 133.097656 L 139.40625 135.238281 " fill-opacity="1" fill-rule="nonzero"/>
  <path fill="#686d6a" d="M 143.824219 143.914062 L 146.464844 142.414062 L 144.957031 139.777344 L 142.316406 141.277344 " fill-opacity="1" fill-rule="nonzero"/>
  <path fill="#686d6a" d="M 147.753906 136.464844 L 150.394531 134.960938 L 148.886719 132.324219 L 146.246094 133.828125 " fill-opacity="1" fill-rule="nonzero"/>
  <path fill="#686d6a" d="M 136.890625 114.441406 L 137.625 107.574219 L 144.496094 108.308594 L 143.765625 115.175781 Z M 136.890625 114.441406 " fill-opacity="1" fill-rule="nonzero"/>
  <path fill="#686d6a" d="M 137.097656 123.746094 L 137.683594 118.238281 L 143.203125 118.828125 L 142.613281 124.335938 Z M 137.097656 123.746094 " fill-opacity="1" fill-rule="nonzero"/>
  <path fill="#686d6a" d="M 147.382812 115.800781 L 147.972656 110.292969 L 153.488281 110.882812 L 152.898438 116.394531 Z M 147.382812 115.800781 " fill-opacity="1" fill-rule="nonzero"/>
  <path fill="#686d6a" d="M 146.015625 123.238281 L 146.472656 118.945312 L 150.769531 119.40625 L 150.308594 123.699219 Z M 146.015625 123.238281 " fill-opacity="1" fill-rule="nonzero"/>
  <path fill="#686d6a" d="M 156.089844 117.59375 L 156.550781 113.300781 L 160.84375 113.761719 L 160.386719 118.050781 Z M 156.089844 117.59375 " fill-opacity="1" fill-rule="nonzero"/>
  <path fill="#686d6a" d="M 145.863281 129.820312 L 146.320312 125.53125 L 150.613281 125.992188 L 150.15625 130.28125 Z M 145.863281 129.820312 " fill-opacity="1" fill-rule="nonzero"/>
  <path fill="#686d6a" d="M 153.386719 124.007812 L 153.847656 119.71875 L 158.140625 120.179688 L 157.683594 124.46875 Z M 153.386719 124.007812 " fill-opacity="1" fill-rule="nonzero"/>
  <path fill="#686d6a" d="M 152.34375 129.34375 L 152.667969 126.324219 L 155.6875 126.648438 L 155.363281 129.664062 Z M 152.34375 129.34375 " fill-opacity="1" fill-rule="nonzero"/>
  <path fill="#686d6a" d="M 159.902344 125.59375 L 160.222656 122.574219 L 163.246094 122.898438 L 162.925781 125.914062 Z M 159.902344 125.59375 " fill-opacity="1" fill-rule="nonzero"/>
  <path fill="#686d6a" d="M 192.523438 154.378906 C 188.90625 152.292969 183.871094 151.6875 178.652344 153.597656 C 176.371094 154.460938 174.085938 155.96875 172.160156 157.445312 C 170.949219 150.082031 171.539062 143.246094 171.820312 139.890625 C 171.824219 139.871094 171.84375 139.863281 171.863281 139.875 C 174.46875 141.511719 173.738281 146.097656 173.191406 147.410156 C 173.179688 147.433594 173.21875 147.453125 173.238281 147.429688 C 176.484375 143.59375 174.898438 139.355469 174.230469 138.28125 C 174.109375 138.089844 174.84375 138.675781 175.449219 139.449219 C 177.71875 142.34375 176.667969 145.589844 176.921875 145.515625 C 176.929688 145.511719 176.9375 145.515625 176.9375 145.507812 C 178.449219 142.542969 177.964844 138.789062 174.859375 136.074219 C 174.71875 135.953125 175.273438 136.136719 175.449219 136.199219 C 178.09375 137.117188 179.472656 139.84375 179.453125 142.277344 C 179.453125 142.808594 181.242188 137.707031 176.921875 135.113281 C 176.113281 134.628906 175.285156 134.363281 174.742188 134.296875 C 174.320312 134.253906 177.054688 133.839844 178.976562 135.144531 C 180.132812 135.921875 180.433594 136.867188 180.40625 136.601562 C 180.070312 133.183594 176.046875 131.835938 173.605469 132.859375 C 173.347656 132.988281 174.566406 131.183594 176.921875 131.324219 C 177.375 131.347656 177.796875 131.445312 178.128906 131.605469 C 178.152344 131.617188 178.175781 131.585938 178.160156 131.566406 C 176.378906 129.53125 173.453125 129.488281 171.898438 131.84375 C 171.890625 131.859375 171.867188 131.859375 171.855469 131.84375 C 171.265625 130.789062 170.773438 129.4375 170.5625 128.160156 C 170.511719 127.835938 170.402344 129.738281 169.222656 131.84375 C 169.210938 131.859375 169.191406 131.859375 169.179688 131.84375 C 167.621094 129.484375 164.699219 129.53125 162.921875 131.566406 C 162.902344 131.585938 162.921875 131.617188 162.949219 131.605469 C 164.136719 131.042969 166.378906 131.210938 167.5 132.820312 C 167.515625 132.84375 167.492188 132.871094 167.46875 132.859375 C 164.957031 131.804688 161.007812 133.238281 160.671875 136.601562 C 160.671875 136.628906 160.707031 136.644531 160.722656 136.621094 C 160.835938 136.410156 161.109375 135.960938 161.628906 135.507812 C 163.636719 133.734375 166.800781 134.25 166.335938 134.296875 C 165.101562 134.449219 162.566406 135.550781 161.628906 138.066406 C 160.863281 140.125 161.601562 142.832031 161.628906 142.160156 C 161.652344 139.875 162.960938 136.808594 166.195312 136.03125 C 166.21875 136.023438 166.238281 136.058594 166.21875 136.074219 C 161.195312 140.496094 164.234375 145.921875 164.1875 145.496094 C 164.03125 143.742188 163.902344 140.613281 166.804688 138.25 C 166.828125 138.234375 166.863281 138.257812 166.847656 138.28125 C 166.179688 139.355469 164.59375 143.59375 167.839844 147.429688 C 167.859375 147.453125 167.898438 147.433594 167.886719 147.410156 C 167.339844 146.097656 166.613281 141.511719 169.214844 139.875 C 169.230469 139.863281 169.253906 139.871094 169.253906 139.890625 C 169.539062 143.246094 170.132812 150.082031 168.917969 157.445312 C 164.789062 154.289062 160.730469 152.21875 155.496094 152.449219 C 152.863281 152.5625 150.367188 153.328125 148.550781 154.378906 C 148.488281 154.417969 148.535156 154.511719 148.605469 154.488281 C 156.214844 152.054688 162.800781 155.007812 168.925781 160.109375 C 165.832031 162.808594 163.027344 165.628906 161.394531 166.484375 C 161.015625 165.960938 160.355469 165.660156 159.632812 165.820312 C 158.269531 166.117188 157.945312 167.824219 158.683594 168.558594 C 161.359375 171.226562 165.539062 165.929688 170.539062 161.503906 C 175.351562 165.757812 179.722656 171.226562 182.394531 168.558594 C 182.605469 168.34375 182.851562 167.640625 182.726562 167.085938 C 182.40625 165.691406 180.554688 165.289062 179.683594 166.484375 C 178.113281 165.691406 175.359375 162.90625 172.152344 160.109375 C 178.320312 154.964844 184.832031 152.089844 192.472656 154.488281 C 192.542969 154.511719 192.589844 154.417969 192.523438 154.378906 " fill-opacity="1" fill-rule="nonzero"/>
  <g clip-path="url(#id2)">
    <path fill="#686d6a" d="M 168.171875 227.261719 L 170.15625 227.261719 L 170.15625 209.480469 L 168.171875 209.480469 Z M 116.191406 225.28125 L 113.09375 217.675781 C 116.300781 214.957031 120.277344 215.457031 122.835938 217.675781 L 119.738281 225.28125 Z M 105.253906 225.28125 C 103.695312 225.234375 102.597656 225.429688 101.152344 224.972656 C 95.789062 223.277344 97.246094 215.816406 103.246094 215.816406 L 105.253906 215.816406 Z M 160.410156 225.28125 C 157.214844 225.183594 154.335938 225.84375 152.871094 223.300781 C 153.160156 222.027344 153 220.886719 153.046875 215.050781 L 151.0625 215.050781 L 151.0625 221.761719 C 151.0625 226.691406 145.121094 226.371094 143.71875 223.410156 C 143.15625 222.222656 143.5 221.722656 143.398438 215.050781 L 141.414062 215.050781 L 141.414062 221.914062 C 141.414062 224.152344 140.011719 225.28125 138.066406 225.28125 L 134.222656 225.28125 L 134.222656 215.050781 L 132.238281 215.050781 L 132.238281 225.28125 L 121.820312 225.28125 L 125.292969 216.980469 C 123.324219 215.257812 120.582031 213.636719 117.953125 213.636719 C 115.28125 213.636719 112.59375 215.1875 110.613281 216.980469 L 114.109375 225.28125 L 107.238281 225.28125 L 107.238281 213.8125 L 104.066406 213.8125 C 99.578125 213.8125 95.855469 216.390625 95.855469 220.625 C 95.855469 228.152344 105.085938 227.226562 105.253906 227.261719 C 105.222656 227.507812 105.503906 229.207031 104.363281 230.0625 C 103.296875 230.863281 101.394531 230.839844 100.207031 230.558594 C 99.71875 230.441406 99.164062 230.246094 98.535156 229.964844 L 97.914062 231.871094 C 99.171875 232.335938 100.375 232.714844 101.707031 232.714844 C 105.488281 232.714844 107.238281 230.828125 107.238281 227.632812 L 107.238281 227.261719 C 139.617188 227.058594 138.660156 227.730469 140.632812 226.644531 C 141.382812 226.230469 141.992188 225.679688 142.453125 224.984375 C 142.933594 225.777344 143.585938 226.398438 144.414062 226.84375 C 146.148438 227.773438 148.796875 227.6875 150.402344 226.890625 C 151.238281 226.480469 151.878906 225.84375 152.324219 224.984375 C 153.089844 226.292969 154.28125 227.132812 156.667969 227.238281 L 156.667969 227.261719 L 162.394531 227.261719 L 162.394531 209.480469 L 160.410156 209.480469 Z M 338.421875 224.402344 C 336.667969 228.507812 330.625 228.625 328.875 224.339844 C 328.363281 223.082031 328.363281 221.589844 328.875 220.3125 C 330.992188 215.0625 338.832031 216.570312 338.832031 222.332031 C 338.832031 223.074219 338.695312 223.765625 338.421875 224.402344 M 319.179688 224.402344 C 317.660156 227.929688 313.089844 228.453125 310.695312 225.988281 C 308.734375 223.957031 308.792969 220.648438 310.6875 218.65625 C 312.230469 217.015625 314.605469 216.75 316.425781 217.5 C 319.292969 218.699219 320.25 221.914062 319.179688 224.402344 M 270.929688 225.28125 C 269.414062 225.234375 268.3125 225.433594 266.875 224.960938 C 261.652344 223.242188 262.898438 215.792969 268.96875 215.792969 L 270.929688 215.792969 Z M 347.015625 225.28125 L 340.199219 225.28125 C 342.324219 220.605469 339.019531 215.125 333.574219 215.125 C 328.5625 215.125 325.054688 220.265625 327.101562 225.28125 L 320.953125 225.28125 C 323.027344 220.742188 319.882812 215.125 314.332031 215.125 C 309.3125 215.125 305.808594 220.269531 307.859375 225.28125 L 301.558594 225.28125 L 301.558594 209.480469 L 299.574219 209.480469 L 299.574219 225.28125 L 293.25 225.28125 C 293.144531 223.246094 293.714844 220.234375 292.011719 218.332031 C 290.855469 217.027344 289.570312 216.621094 287.820312 216.621094 L 279.039062 216.621094 L 282.773438 209.480469 L 280.617188 209.480469 L 276.808594 216.597656 C 276.929688 217.386719 277.171875 218.003906 277.703125 218.605469 C 287.625 218.6875 288.269531 218.394531 289.445312 218.890625 C 290.363281 219.269531 290.925781 219.964844 291.117188 220.808594 C 291.355469 221.828125 291.234375 222.59375 291.269531 225.28125 L 272.914062 225.28125 L 272.914062 213.8125 L 269.789062 213.8125 C 264.53125 213.8125 261.605469 216.941406 261.605469 220.546875 C 261.605469 225.070312 265.238281 227.261719 269.789062 227.261719 L 309.148438 227.261719 C 312.066406 230.410156 316.980469 230.144531 319.664062 227.261719 L 328.390625 227.261719 C 331.300781 230.402344 336.210938 230.152344 338.910156 227.261719 L 349 227.261719 L 349 209.480469 L 347.015625 209.480469 Z M 354.777344 227.261719 L 356.761719 227.261719 L 356.761719 209.480469 L 354.777344 209.480469 Z M 208.597656 231.625 L 210.636719 231.625 L 210.636719 229.589844 L 208.597656 229.589844 Z M 227.996094 225.28125 L 224.894531 217.675781 C 228.078125 214.980469 232.050781 215.433594 234.640625 217.675781 L 231.542969 225.28125 Z M 242.054688 225.28125 L 233.625 225.28125 L 237.097656 216.980469 C 235.121094 215.25 232.371094 213.636719 229.757812 213.636719 C 227.078125 213.636719 224.394531 215.195312 222.414062 216.980469 L 225.910156 225.28125 L 218.523438 225.28125 L 218.523438 213.8125 L 216.539062 213.8125 L 216.539062 227.683594 C 216.539062 229.4375 216.410156 230.730469 214.652344 230.730469 C 214.246094 230.730469 214.027344 230.695312 213.636719 230.582031 L 213.117188 232.492188 C 214.773438 232.945312 216.730469 232.792969 217.703125 231.363281 C 218.582031 230.066406 218.480469 228.28125 218.523438 227.261719 L 244.042969 227.261719 L 244.042969 209.480469 L 242.054688 209.480469 Z M 91.441406 215.546875 C 89.234375 213.136719 86.683594 214.007812 85.8125 213.8125 L 85.8125 215.792969 C 87.257812 215.847656 87.929688 215.632812 88.910156 216.101562 C 89.738281 216.5 90.320312 217.140625 90.5625 218.046875 C 90.828125 219.085938 90.679688 219.898438 90.722656 225.28125 L 81.421875 225.28125 L 81.421875 227.261719 L 92.707031 227.261719 C 92.625 219.753906 92.910156 218.957031 92.394531 217.277344 C 92.1875 216.601562 91.871094 216.023438 91.441406 215.546875 M 201.347656 231.648438 L 203.382812 231.648438 L 203.382812 229.613281 L 201.347656 229.613281 Z M 189.28125 225.28125 C 187.769531 225.234375 186.667969 225.433594 185.226562 224.960938 C 179.996094 223.242188 181.257812 215.792969 187.324219 215.792969 L 189.28125 215.792969 Z M 210.609375 213.8125 L 208.628906 213.8125 L 208.628906 225.28125 L 201.136719 225.28125 L 201.136719 213.8125 L 199.152344 213.8125 L 199.152344 225.28125 L 191.265625 225.28125 L 191.265625 213.8125 C 188.773438 213.890625 185.050781 213.304688 182.191406 215.730469 C 178.136719 219.167969 179.179688 227.261719 188.144531 227.261719 L 210.609375 227.261719 Z M 197.871094 231.648438 L 199.910156 231.648438 L 199.910156 229.613281 L 197.871094 229.613281 Z M 65.289062 209.480469 L 63.25 209.480469 L 63.25 211.515625 L 65.289062 211.515625 Z M 269.429688 209.480469 L 267.390625 209.480469 L 267.390625 211.515625 L 269.429688 211.515625 Z M 191.257812 209.480469 L 189.21875 209.480469 L 189.21875 211.515625 L 191.257812 211.515625 Z M 76.992188 231.648438 L 79.03125 231.648438 L 79.03125 229.613281 L 76.992188 229.613281 Z M 187.78125 209.480469 L 185.746094 209.480469 L 185.746094 211.515625 L 187.78125 211.515625 Z M 68.765625 209.480469 L 66.726562 209.480469 L 66.726562 211.515625 L 68.765625 211.515625 Z M 73.515625 231.648438 L 75.554688 231.648438 L 75.554688 229.613281 L 73.515625 229.613281 Z M 66.789062 225.28125 C 65.277344 225.234375 64.171875 225.433594 62.734375 224.960938 C 57.511719 223.246094 58.746094 215.792969 64.832031 215.792969 L 66.789062 215.792969 Z M 78.644531 213.8125 L 76.660156 213.8125 L 76.660156 225.28125 L 68.773438 225.28125 L 68.773438 213.8125 C 66.394531 213.882812 64.503906 213.574219 62.273438 214.316406 C 60.40625 214.945312 58.878906 216.101562 58.046875 217.875 C 57.179688 219.71875 57.335938 222.066406 58.136719 223.570312 C 59.570312 226.285156 62.578125 227.261719 65.648438 227.261719 L 78.644531 227.261719 Z M 249.820312 227.261719 L 251.804688 227.261719 L 251.804688 209.480469 L 249.820312 209.480469 Z M 272.902344 209.480469 L 270.867188 209.480469 L 270.867188 211.515625 L 272.902344 211.515625 Z M 272.902344 209.480469 " fill-opacity="1" fill-rule="nonzero"/>
  </g>
  <g clip-path="url(#id3)">
    <path fill="#686d6a" d="M 59.40625 240.285156 L 61.898438 240.285156 L 61.898438 247.40625 L 68.636719 240.285156 L 71.695312 240.285156 L 65.804688 246.375 L 71.957031 254.441406 L 68.941406 254.441406 L 64.105469 248.074219 L 61.898438 250.339844 L 61.898438 254.441406 L 59.40625 254.441406 " fill-opacity="1" fill-rule="nonzero"/>
  </g>
  <g clip-path="url(#id4)">
    <path fill="#686d6a" d="M 74.230469 240.285156 L 76.71875 240.285156 L 76.71875 254.441406 L 74.230469 254.441406 Z M 74.230469 240.285156 " fill-opacity="1" fill-rule="nonzero"/>
  </g>
  <g clip-path="url(#id5)">
    <path fill="#686d6a" d="M 80.554688 240.285156 L 82.863281 240.285156 L 90.453125 250.074219 L 90.453125 240.285156 L 92.902344 240.285156 L 92.902344 254.441406 L 90.816406 254.441406 L 83.003906 244.371094 L 83.003906 254.441406 L 80.554688 254.441406 " fill-opacity="1" fill-rule="nonzero"/>
  </g>
  <g clip-path="url(#id6)">
    <path fill="#686d6a" d="M 95.984375 247.40625 L 95.984375 247.363281 C 95.984375 243.402344 99.023438 240.042969 103.292969 240.042969 C 105.761719 240.042969 107.28125 240.730469 108.738281 241.964844 L 107.160156 243.847656 C 103.324219 240.582031 98.597656 242.933594 98.597656 247.324219 L 98.597656 247.363281 C 98.597656 250.277344 100.519531 252.421875 103.414062 252.421875 C 104.75 252.421875 105.964844 251.996094 106.835938 251.347656 L 106.835938 248.699219 L 103.210938 248.699219 L 103.210938 246.535156 L 109.246094 246.535156 L 109.246094 252.480469 C 104.179688 256.8125 95.984375 254.585938 95.984375 247.40625 " fill-opacity="1" fill-rule="nonzero"/>
  </g>
  <g clip-path="url(#id7)">
    <path fill="#686d6a" d="M 117.96875 252.175781 C 124.578125 252.175781 124.5 242.550781 117.96875 242.550781 L 115.175781 242.550781 L 115.175781 252.175781 Z M 112.683594 240.285156 L 117.96875 240.285156 C 128.078125 240.285156 127.941406 254.441406 117.96875 254.441406 L 112.683594 254.441406 Z M 112.683594 240.285156 " fill-opacity="1" fill-rule="nonzero"/>
  </g>
  <g clip-path="url(#id8)">
    <path fill="#686d6a" d="M 140.039062 247.40625 L 140.039062 247.363281 C 140.039062 244.613281 138.035156 242.332031 135.21875 242.332031 C 132.40625 242.332031 130.445312 244.574219 130.445312 247.324219 L 130.445312 247.363281 C 130.445312 250.117188 132.449219 252.402344 135.261719 252.402344 C 138.074219 252.402344 140.039062 250.15625 140.039062 247.40625 M 127.832031 247.40625 L 127.832031 247.363281 C 127.832031 243.382812 130.910156 240.042969 135.261719 240.042969 C 139.613281 240.042969 142.652344 243.339844 142.652344 247.324219 L 142.652344 247.363281 C 142.652344 251.347656 139.574219 254.683594 135.21875 254.683594 C 130.867188 254.683594 127.832031 251.390625 127.832031 247.40625 " fill-opacity="1" fill-rule="nonzero"/>
  </g>
  <g clip-path="url(#id9)">
    <path fill="#686d6a" d="M 145.742188 240.285156 L 148.394531 240.285156 L 152.707031 246.980469 L 157.019531 240.285156 L 159.671875 240.285156 L 159.671875 254.441406 L 157.179688 254.441406 L 157.179688 244.289062 L 152.707031 250.964844 L 152.628906 250.964844 L 148.195312 244.332031 L 148.195312 254.441406 L 145.742188 254.441406 " fill-opacity="1" fill-rule="nonzero"/>
  </g>
  <g clip-path="url(#id10)">
    <path fill="#686d6a" d="M 180.976562 247.40625 L 180.976562 247.363281 C 180.976562 244.613281 178.972656 242.332031 176.15625 242.332031 C 173.34375 242.332031 171.378906 244.574219 171.378906 247.324219 L 171.378906 247.363281 C 171.378906 250.117188 173.382812 252.402344 176.195312 252.402344 C 179.011719 252.402344 180.976562 250.15625 180.976562 247.40625 M 168.769531 247.40625 L 168.769531 247.363281 C 168.769531 243.382812 171.84375 240.042969 176.195312 240.042969 C 180.550781 240.042969 183.585938 243.339844 183.585938 247.324219 L 183.585938 247.363281 C 183.585938 251.347656 180.507812 254.683594 176.15625 254.683594 C 171.804688 254.683594 168.769531 251.390625 168.769531 247.40625 " fill-opacity="1" fill-rule="nonzero"/>
  </g>
  <g clip-path="url(#id11)">
    <path fill="#686d6a" d="M 186.679688 240.285156 L 197.226562 240.285156 L 197.226562 242.550781 L 189.171875 242.550781 L 189.171875 246.414062 L 196.316406 246.414062 L 196.316406 248.679688 L 189.171875 248.679688 L 189.171875 254.441406 L 186.679688 254.441406 " fill-opacity="1" fill-rule="nonzero"/>
  </g>
  <g clip-path="url(#id12)">
    <path fill="#686d6a" d="M 205.085938 252.382812 L 206.585938 250.601562 C 207.941406 251.773438 209.296875 252.441406 211.058594 252.441406 C 212.597656 252.441406 213.570312 251.734375 213.570312 250.660156 L 213.570312 250.621094 C 213.570312 247.460938 205.652344 249.617188 205.652344 244.230469 L 205.652344 244.191406 C 205.652344 239.84375 211.726562 238.738281 215.632812 241.863281 L 214.296875 243.746094 C 211.039062 241.316406 208.144531 242.273438 208.144531 243.96875 L 208.144531 244.007812 C 208.144531 247.128906 216.058594 245.15625 216.058594 250.378906 L 216.058594 250.417969 C 216.058594 255.382812 209.027344 255.894531 205.085938 252.382812 " fill-opacity="1" fill-rule="nonzero"/>
  </g>
  <g clip-path="url(#id13)">
    <path fill="#686d6a" d="M 227.253906 248.820312 L 224.804688 243.160156 L 222.375 248.820312 Z M 223.691406 240.1875 L 225.996094 240.1875 L 232.230469 254.441406 L 229.601562 254.441406 L 228.164062 251.023438 L 221.460938 251.023438 L 220.007812 254.441406 L 217.453125 254.441406 Z M 223.691406 240.1875 " fill-opacity="1" fill-rule="nonzero"/>
  </g>
  <g clip-path="url(#id14)">
    <path fill="#686d6a" d="M 233.695312 248.4375 L 233.695312 240.285156 L 236.1875 240.285156 L 236.1875 248.335938 C 236.1875 250.964844 237.542969 252.382812 239.769531 252.382812 C 241.976562 252.382812 243.332031 251.046875 243.332031 248.4375 L 243.332031 240.285156 L 245.824219 240.285156 L 245.824219 248.316406 C 245.824219 252.542969 243.433594 254.667969 239.730469 254.667969 C 236.042969 254.667969 233.695312 252.542969 233.695312 248.4375 " fill-opacity="1" fill-rule="nonzero"/>
  </g>
  <g clip-path="url(#id15)">
    <path fill="#686d6a" d="M 254.75 252.175781 C 261.359375 252.175781 261.28125 242.550781 254.75 242.550781 L 251.957031 242.550781 L 251.957031 252.175781 Z M 249.46875 240.285156 L 254.75 240.285156 C 264.863281 240.285156 264.726562 254.441406 254.75 254.441406 L 249.46875 254.441406 Z M 249.46875 240.285156 " fill-opacity="1" fill-rule="nonzero"/>
  </g>
  <g clip-path="url(#id16)">
    <path fill="#686d6a" d="M 265.4375 240.285156 L 267.925781 240.285156 L 267.925781 254.441406 L 265.4375 254.441406 Z M 265.4375 240.285156 " fill-opacity="1" fill-rule="nonzero"/>
  </g>
  <g clip-path="url(#id17)">
    <path fill="#686d6a" d="M 286.371094 248.820312 L 283.921875 243.160156 L 281.492188 248.820312 Z M 282.808594 240.1875 L 285.117188 240.1875 L 291.351562 254.441406 L 288.71875 254.441406 L 287.28125 251.023438 L 280.582031 251.023438 L 279.125 254.441406 L 276.574219 254.441406 Z M 282.808594 240.1875 " fill-opacity="1" fill-rule="nonzero"/>
  </g>
  <g clip-path="url(#id18)">
    <path fill="#686d6a" d="M 299.839844 247.304688 C 301.621094 247.304688 302.753906 246.375 302.753906 244.9375 L 302.753906 244.898438 C 302.753906 243.382812 301.660156 242.550781 299.816406 242.550781 L 296.195312 242.550781 L 296.195312 247.304688 Z M 293.707031 240.285156 L 300.019531 240.285156 C 303.015625 240.285156 305.285156 241.792969 305.285156 244.753906 C 305.226562 244.910156 305.578125 248.035156 301.902344 249.085938 L 305.730469 254.441406 L 302.792969 254.441406 L 299.3125 249.507812 C 299.039062 249.507812 296.035156 249.507812 296.195312 249.507812 L 296.195312 254.441406 L 293.707031 254.441406 Z M 293.707031 240.285156 " fill-opacity="1" fill-rule="nonzero"/>
  </g>
  <g clip-path="url(#id19)">
    <path fill="#686d6a" d="M 317.359375 248.820312 L 314.910156 243.160156 L 312.480469 248.820312 Z M 313.796875 240.1875 L 316.105469 240.1875 L 322.339844 254.441406 L 319.707031 254.441406 L 318.269531 251.023438 L 311.570312 251.023438 L 310.113281 254.441406 L 307.5625 254.441406 Z M 313.796875 240.1875 " fill-opacity="1" fill-rule="nonzero"/>
  </g>
  <g clip-path="url(#id20)">
    <path fill="#686d6a" d="M 331.269531 252.238281 C 332.972656 252.238281 334.003906 251.570312 334.003906 250.296875 L 334.003906 250.257812 C 334.003906 249.066406 333.050781 248.355469 331.089844 248.355469 L 327.140625 248.355469 L 327.140625 252.238281 Z M 330.542969 246.253906 C 332.140625 246.253906 333.214844 245.625 333.214844 244.332031 L 333.214844 244.289062 C 333.214844 243.179688 332.324219 242.492188 330.722656 242.492188 L 327.140625 242.492188 L 327.140625 246.253906 Z M 324.691406 240.285156 L 331.046875 240.285156 C 333.539062 240.285156 335.703125 241.453125 335.703125 243.886719 C 335.644531 244.042969 335.957031 245.898438 333.679688 247.082031 C 335.339844 247.648438 336.492188 248.597656 336.492188 250.519531 L 336.492188 250.558594 C 336.492188 253.089844 334.40625 254.441406 331.25 254.441406 L 324.691406 254.441406 Z M 324.691406 240.285156 " fill-opacity="1" fill-rule="nonzero"/>
  </g>
  <g clip-path="url(#id21)">
    <path fill="#686d6a" d="M 339.578125 240.285156 L 342.066406 240.285156 L 342.066406 254.441406 L 339.578125 254.441406 Z M 339.578125 240.285156 " fill-opacity="1" fill-rule="nonzero"/>
  </g>
  <g clip-path="url(#id22)">
    <path fill="#686d6a" d="M 354.242188 248.820312 L 351.792969 243.160156 L 349.363281 248.820312 Z M 350.679688 240.1875 L 352.984375 240.1875 L 359.222656 254.441406 L 356.589844 254.441406 L 355.152344 251.023438 L 348.453125 251.023438 L 346.996094 254.441406 L 344.445312 254.441406 Z M 350.679688 240.1875 " fill-opacity="1" fill-rule="nonzero"/>
  </g>
  <path class="cls-1" d="M 634.686 114.529 C 634.681 110.366 632.925 106.399 629.847 103.595 L 599.161 75.712 C 598.035 74.688 596.748 73.854 595.354 73.244 C 594.815 72.079 594.041 71.039 593.081 70.187 C 591.773 69.023 560.945 41.624 553.453 35.079 C 548.177 30.472 541.727 27.829 535.752 27.829 C 531.168 27.829 527.068 29.449 524.214 32.397 C 523.134 33.517 522.247 34.809 521.59 36.22 C 520.572 36.45 519.601 36.85 518.716 37.403 L 484.616 58.75 C 482.344 60.171 480.79 62.498 480.348 65.142 C 480.321 65.318 480.294 65.49 480.278 65.665 C 470.95 66.251 464.081 70.964 455.538 76.829 C 454.371 77.629 453.164 78.457 451.891 79.316 C 444.827 84.091 438.807 89.457 434.488 94.834 C 429.322 101.261 426.705 107.469 426.705 113.287 L 426.705 125.52 C 426.724 129.223 427.863 132.834 429.974 135.876 C 427.931 138.015 426.705 140.756 426.705 143.74 L 426.705 157.364 C 426.696 159.297 427.25 161.191 428.299 162.814 C 427.26 164.357 426.705 166.175 426.705 168.035 L 426.705 225.13 C 426.707 227.463 427.579 229.711 429.15 231.436 C 427.549 233.753 426.696 236.506 426.705 239.323 L 426.705 249.073 C 426.705 254.196 429.752 259.167 435.058 262.704 C 438.338 264.891 443.988 267.499 452.27 267.499 C 455.838 267.499 458.902 266.911 461.461 265.734 C 463.405 266.89 465.623 267.5 467.885 267.499 L 490.098 267.499 C 491.534 267.5 492.961 267.269 494.323 266.816 C 495.438 267.269 496.63 267.501 497.833 267.499 L 502.101 267.499 C 507.277 267.498 511.472 263.303 511.473 258.128 L 511.473 204.829 C 511.455 187.867 529.806 177.247 544.504 185.712 C 551.34 189.649 555.549 196.941 555.542 204.829 L 555.542 258.128 C 555.542 263.303 559.738 267.498 564.912 267.499 L 569.181 267.499 C 570.326 267.501 571.462 267.291 572.531 266.879 C 573.805 267.291 575.136 267.5 576.475 267.499 L 595.44 267.499 C 597.634 267.502 599.799 266.993 601.761 266.012 C 603.858 266.991 606.144 267.498 608.458 267.499 L 613.628 267.499 C 625.253 267.484 634.672 258.063 634.686 246.437 L 634.686 229.179 C 634.685 226.427 633.476 223.814 631.379 222.033 C 633.222 218.972 634.686 215.325 634.686 211.486 L 634.686 197.356 C 634.692 192.551 633.166 187.87 630.328 183.993 C 633.121 181.244 634.692 177.487 634.686 173.568 L 634.686 143.111 C 634.689 140.466 633.912 137.879 632.453 135.673 C 633.91 133.529 634.689 130.995 634.686 128.402 Z M 547.289 42.137 C 554.838 48.732 586.855 77.191 586.855 77.191 C 586.855 77.191 581.389 79.135 567.766 79.013 C 553.016 78.319 544.426 75.282 540.955 68.427 C 537.484 61.573 529.936 45.347 529.502 43.265 C 529.241 35.196 539.74 35.543 547.289 42.137 Z M 572.256 146.212 C 565.426 148.657 556.722 147.517 551.901 136.268 C 547.08 125.019 550.562 119.26 556.856 117.118 C 563.15 114.975 567.703 115.109 569.846 121.804 C 569.846 121.804 570.783 130.509 573.337 134.941 C 575.891 139.374 579.086 143.767 572.256 146.212 Z M 577.612 149.659 C 582.3 145.775 588.192 144.838 588.192 148.588 L 588.192 162.004 C 588.19 164 586.372 165.501 584.411 165.125 C 579.341 164.169 571.161 163.792 564.891 163.184 C 556.588 162.381 558.731 153.409 558.731 153.409 C 565.024 155.417 572.926 153.543 577.612 149.659 Z M 568.105 109.216 C 566.096 113.234 556.187 113.368 552.838 107.342 C 549.491 101.316 553.374 93.683 554.58 90.736 C 555.785 87.791 558.998 83.237 566.498 83.505 C 573.997 83.773 574.721 86.365 573.507 90.736 C 570.606 101.182 570.113 105.2 568.105 109.216 Z M 487.622 198.538 C 487.488 200.681 480.256 202.154 479.051 200.681 C 477.846 199.207 472.623 189.164 468.158 182.468 C 463.692 175.772 464.052 172.291 472.757 171.621 C 481.461 170.951 485.345 169.478 485.345 169.478 C 484.979 184.011 487.755 196.396 487.622 198.538 Z M 484.944 146.212 C 484.944 146.212 497.398 148.32 509.087 148.454 C 520.776 148.588 525.118 141.758 534.09 140.017 C 543.063 138.276 550.026 150.195 546.812 154.526 C 543.599 158.858 523.511 161.577 502.353 162.783 C 481.194 163.988 484.944 146.212 484.944 146.212 Z M 525.386 83.494 C 525.386 83.494 541.188 85.112 543.197 89.129 C 545.205 93.147 548.821 109.618 546.812 116.984 C 545.875 120.465 535.831 118.457 530.474 116.984 C 525.118 115.51 521.368 113.368 523.377 108.011 C 525.386 102.655 525.654 92.187 525.386 83.494 Z M 524.314 118.913 C 530.34 118.967 529.001 128.903 528.332 132.652 C 527.662 136.402 528.6 140.017 511.86 140.017 C 495.121 140.017 489.229 132.652 489.229 132.652 C 503.022 121.922 518.288 118.859 524.314 118.913 Z M 523.688 45.347 C 523.688 45.347 530.717 61.399 533.667 67.82 C 536.617 74.241 524.122 79.447 511.628 77.885 C 499.133 76.324 491.411 68.948 489.589 66.692 Z M 436.077 113.286 C 436.077 105.998 444.297 95.76 457.138 87.083 C 469.98 78.406 476.053 73.026 487.941 75.629 C 499.828 78.232 512.236 83.004 514.925 86.475 C 522.734 95.499 522.214 106.605 516.747 110.249 C 511.281 113.893 465.902 130.119 453.755 133.85 C 441.607 137.58 436.077 130.986 436.077 125.52 Z M 436.077 143.74 C 436.077 142.353 438.31 140.706 441.086 140.706 L 448.549 140.706 L 448.549 142.588 C 449.055 142.569 449.555 142.46 450.025 142.268 C 455.491 140.182 467.115 136.02 471.106 137.406 C 475.1 138.797 474.925 144.349 478.396 149.901 C 481.868 155.454 480.653 158.406 476.053 162.397 C 469.72 168.558 461.91 168.73 459.134 166.82 C 456.358 164.911 447.854 162.482 443.777 161.353 C 439.697 160.225 436.077 158.577 436.077 157.364 Z M 452.271 258.127 C 441.823 258.127 436.077 252.555 436.077 249.072 L 436.077 239.322 C 436.077 237.058 437.477 233.989 446.525 232.53 C 455.837 231.028 458.193 237.406 459.412 244.545 C 460.63 251.685 462.72 258.127 452.271 258.127 Z M 436.077 225.128 L 436.077 168.036 C 453.54 172.895 468.158 186.69 468.158 204.825 C 468.158 222.959 436.077 225.128 436.077 225.128 Z M 494.049 254.179 C 494.049 256.36 492.282 258.127 490.101 258.127 L 467.886 258.127 C 465.629 258.128 464.069 255.871 464.866 253.761 C 466.752 248.76 469.771 241.074 471.016 239.65 C 472.891 237.508 478.784 239.382 484.408 239.248 C 487.733 239.185 491.011 238.456 494.049 237.106 Z M 481.729 231.481 L 462.312 231.481 C 462.312 231.481 467.267 224.652 470.079 219.697 C 472.891 214.742 478.114 206.572 485.211 206.572 C 492.309 206.572 494.049 215.947 494.049 222.107 C 494.049 228.267 490.033 231.481 481.729 231.481 Z M 494.317 204.162 L 492.577 204.162 C 492.577 204.162 492.041 188.896 492.577 179.656 C 493.112 170.415 510.253 170.55 510.253 170.55 C 493.915 182.335 494.317 204.162 494.317 204.162 Z M 569.181 258.128 L 564.912 258.128 L 564.912 204.829 C 564.912 187.484 550.852 173.423 533.507 173.423 L 533.507 173.423 C 516.162 173.423 502.101 187.484 502.101 204.829 L 502.101 258.128 L 497.833 258.128 L 497.833 203.708 C 497.833 184.006 513.806 168.035 533.507 168.035 L 533.507 168.035 C 553.209 168.035 569.181 184.006 569.181 203.708 Z M 557.793 170.148 C 557.793 170.148 576.14 165.193 587.522 175.37 C 592.745 179.924 593.816 184.075 587.522 187.557 C 581.228 191.039 573.06 194.923 573.06 194.923 C 573.06 194.923 569.578 180.5 557.793 170.148 Z M 600.274 253.293 C 600.274 255.963 598.11 258.127 595.44 258.127 L 576.473 258.127 C 574.588 258.127 573.06 256.599 573.06 254.714 L 573.06 212.466 C 583.371 221.571 600.274 240.855 600.274 247.283 Z M 625.314 246.439 C 625.314 252.895 620.081 258.127 613.626 258.127 L 608.457 258.127 C 604.574 258.132 601.567 254.728 602.051 250.874 C 605.269 225.753 625.314 229.18 625.314 229.18 Z M 625.314 211.485 C 625.314 216.107 619.32 224.766 608.328 230.276 C 604.36 232.241 599.582 231.453 596.455 228.32 L 577.126 209.074 C 574.386 206.342 574.658 201.827 577.707 199.445 C 583.289 195.064 589.385 191.382 595.859 188.478 C 600.176 186.594 604.686 185.188 609.309 184.282 C 617.576 182.605 625.307 188.921 625.314 197.356 Z M 625.314 173.568 C 625.316 176.251 623.293 178.503 620.624 178.79 C 616.684 179.213 610.947 179.844 606.168 180.432 C 597.996 181.438 595.105 171.003 595.105 159.186 C 595.105 147.368 596.991 138.945 609.437 138.945 L 621.148 138.945 C 623.448 138.945 625.314 140.811 625.314 143.111 Z M 625.314 128.403 C 625.316 130.448 623.616 132.085 621.572 132.003 C 615.085 131.747 600.995 132.457 585.927 141.293 C 584.501 142.128 582.679 141.801 581.635 140.521 C 578.677 136.885 573.507 128.581 573.507 114.942 C 573.507 101.1 580.647 89.297 586.304 82.985 C 588.017 81.073 590.958 80.922 592.857 82.648 L 623.546 110.532 C 624.672 111.556 625.314 113.007 625.314 114.529 Z" style="fill: rgb(192, 193, 192);"/>
  <path class="cls-2" d="M 446.525 232.53 C 437.477 233.989 436.077 237.058 436.077 239.321 L 436.077 249.072 C 436.077 252.555 441.823 258.127 452.271 258.127 C 462.72 258.127 460.63 251.685 459.412 244.545 C 458.193 237.406 455.837 231.028 446.525 232.53 Z" style="fill: rgb(104, 109, 106);"/>
  <path class="cls-3" d="M 468.158 204.825 C 468.158 186.69 453.54 172.895 436.077 168.036 L 436.077 225.128 C 436.077 225.128 468.158 222.959 468.158 204.825 Z" style="fill: rgb(104, 109, 106);"/>
  <path class="cls-2" d="M 443.777 161.354 C 447.854 162.482 456.358 164.912 459.134 166.82 C 461.91 168.73 469.72 168.558 476.053 162.397 C 480.653 158.406 481.868 155.454 478.396 149.901 C 474.925 144.349 475.101 138.797 471.106 137.406 C 467.115 136.02 455.491 140.183 450.025 142.268 C 449.555 142.46 449.055 142.569 448.549 142.588 L 448.549 140.706 L 441.086 140.706 C 438.31 140.706 436.077 142.353 436.077 143.74 L 436.077 157.364 C 436.077 158.577 439.697 160.225 443.777 161.354 Z" style="fill: rgb(104, 109, 106);"/>
  <path class="cls-4" d="M 453.755 133.85 C 465.902 130.119 511.281 113.893 516.747 110.249 C 522.214 106.605 522.735 95.499 514.925 86.475 C 512.236 83.004 499.828 78.232 487.941 75.629 C 476.053 73.026 469.98 78.406 457.138 87.083 C 444.297 95.76 436.077 105.998 436.077 113.286 L 436.077 125.52 C 436.077 130.986 441.607 137.58 453.755 133.85 Z" style="fill: rgb(104, 109, 106);"/>
  <path class="cls-2" d="M 511.628 77.885 C 524.122 79.447 536.617 74.241 533.667 67.82 C 530.717 61.399 523.688 45.347 523.688 45.347 L 489.589 66.692 C 491.411 68.948 499.133 76.324 511.628 77.885 Z" style="fill: rgb(104, 109, 106);"/>
  <path class="cls-5" d="M 567.766 79.013 C 581.389 79.135 586.855 77.191 586.855 77.191 C 586.855 77.191 554.838 48.732 547.289 42.137 C 539.74 35.543 529.241 35.196 529.502 43.265 C 529.936 45.347 537.484 61.573 540.955 68.427 C 544.426 75.282 553.016 78.319 567.766 79.013 Z" style="fill: rgb(104, 109, 106);"/>
  <path class="cls-4" d="M 592.857 82.648 C 590.958 80.922 588.017 81.073 586.304 82.985 C 580.647 89.298 573.507 101.1 573.507 114.942 C 573.507 128.581 578.677 136.886 581.635 140.521 C 582.679 141.801 584.501 142.128 585.927 141.293 C 600.995 132.457 615.085 131.747 621.572 132.003 C 623.616 132.085 625.316 130.449 625.314 128.403 L 625.314 114.529 C 625.314 113.007 624.672 111.556 623.546 110.532 Z" style="fill: rgb(104, 109, 106);"/>
  <path class="cls-3" d="M 621.148 138.945 L 609.437 138.945 C 596.991 138.945 595.105 147.368 595.105 159.186 C 595.105 171.003 597.997 181.438 606.168 180.432 C 610.947 179.844 616.684 179.213 620.624 178.79 C 623.293 178.503 625.316 176.251 625.314 173.568 L 625.314 143.111 C 625.314 140.811 623.448 138.945 621.148 138.945 Z" style="fill: rgb(104, 109, 106);"/>
  <path class="cls-5" d="M 609.309 184.282 C 604.686 185.188 600.177 186.594 595.859 188.478 C 589.385 191.382 583.289 195.064 577.707 199.445 C 574.658 201.827 574.386 206.342 577.126 209.074 L 596.455 228.32 C 599.582 231.453 604.361 232.241 608.328 230.276 C 619.32 224.766 625.314 216.107 625.314 211.485 L 625.314 197.356 C 625.308 188.921 617.576 182.605 609.309 184.282 Z" style="fill: rgb(104, 109, 106);"/>
  <path class="cls-3" d="M 602.051 250.874 C 601.567 254.728 604.574 258.132 608.457 258.127 L 613.626 258.127 C 620.081 258.127 625.314 252.895 625.314 246.439 L 625.314 229.18 C 625.314 229.18 605.269 225.753 602.051 250.874 Z" style="fill: rgb(104, 109, 106);"/>
  <path class="cls-4" d="M 573.06 212.466 L 573.06 254.714 C 573.06 256.599 574.588 258.127 576.473 258.127 L 595.44 258.127 C 598.11 258.127 600.274 255.963 600.274 253.293 L 600.274 247.283 C 600.274 240.855 583.371 221.571 573.06 212.466 Z" style="fill: rgb(104, 109, 106);"/>
  <path class="cls-2" d="M 587.522 187.557 C 593.816 184.075 592.745 179.924 587.522 175.37 C 576.14 165.193 557.793 170.148 557.793 170.148 C 569.578 180.5 573.06 194.923 573.06 194.923 C 573.06 194.923 581.228 191.039 587.522 187.557 Z" style="fill: rgb(104, 109, 106);"/>
  <path class="cls-2" d="M 558.731 153.409 C 558.731 153.409 556.588 162.381 564.891 163.184 C 571.161 163.792 579.341 164.169 584.411 165.125 C 586.372 165.501 588.19 164 588.192 162.004 L 588.192 148.588 C 588.192 144.838 582.3 145.775 577.612 149.659 C 572.926 153.543 565.024 155.417 558.731 153.409 Z" style="fill: rgb(104, 109, 106);"/>
  <path class="cls-2" d="M 569.846 121.804 C 567.703 115.109 563.15 114.975 556.856 117.118 C 550.562 119.26 547.08 125.019 551.901 136.268 C 556.722 147.517 565.426 148.657 572.256 146.212 C 579.086 143.767 575.891 139.374 573.337 134.941 C 570.783 130.509 569.846 121.804 569.846 121.804 Z" style="fill: rgb(104, 109, 106);"/>
  <path class="cls-3" d="M 566.498 83.505 C 558.998 83.237 555.785 87.791 554.58 90.736 C 553.374 93.683 549.491 101.316 552.838 107.342 C 556.187 113.368 566.096 113.234 568.105 109.216 C 570.113 105.2 570.606 101.182 573.507 90.736 C 574.721 86.365 573.997 83.773 566.498 83.505 Z" style="fill: rgb(104, 109, 106);"/>
  <path class="cls-2" d="M 530.474 116.984 C 535.831 118.457 545.875 120.465 546.812 116.984 C 548.821 109.618 545.205 93.147 543.197 89.129 C 541.188 85.112 525.386 83.494 525.386 83.494 C 525.654 92.187 525.386 102.655 523.377 108.011 C 521.368 113.368 525.118 115.51 530.474 116.984 Z" style="fill: rgb(104, 109, 106);"/>
  <path class="cls-2" d="M 511.86 140.017 C 528.6 140.017 527.662 136.402 528.332 132.652 C 529.001 128.902 530.34 118.967 524.314 118.913 C 518.288 118.859 503.022 121.922 489.229 132.652 C 489.229 132.652 495.121 140.017 511.86 140.017 Z" style="fill: rgb(104, 109, 106);"/>
  <path class="cls-5" d="M 502.353 162.783 C 523.511 161.577 543.599 158.858 546.812 154.526 C 550.026 150.195 543.063 138.276 534.09 140.017 C 525.118 141.758 520.776 148.588 509.087 148.454 C 497.398 148.32 484.944 146.212 484.944 146.212 C 484.944 146.212 481.194 163.988 502.353 162.783 Z" style="fill: rgb(104, 109, 106);"/>
  <path class="cls-5" d="M 472.757 171.621 C 464.052 172.291 463.692 175.772 468.158 182.469 C 472.623 189.164 477.846 199.207 479.051 200.681 C 480.256 202.154 487.488 200.681 487.622 198.538 C 487.755 196.396 484.979 184.011 485.345 169.478 C 485.345 169.478 481.461 170.952 472.757 171.621 Z" style="fill: rgb(104, 109, 106);"/>
  <path class="cls-2" d="M 510.253 170.55 C 510.253 170.55 493.112 170.416 492.577 179.656 C 492.041 188.896 492.577 204.162 492.577 204.162 L 494.317 204.162 C 494.317 204.162 493.915 182.335 510.253 170.55 Z" style="fill: rgb(104, 109, 106);"/>
  <path class="cls-2" d="M 485.211 206.573 C 478.114 206.573 472.891 214.742 470.079 219.697 C 467.267 224.652 462.312 231.481 462.312 231.481 L 481.729 231.481 C 490.033 231.481 494.049 228.267 494.049 222.107 C 494.049 215.947 492.309 206.573 485.211 206.573 Z" style="fill: rgb(104, 109, 106);"/>
  <path class="cls-5" d="M 471.016 239.65 C 469.771 241.074 466.752 248.76 464.866 253.761 C 464.069 255.871 465.629 258.128 467.886 258.127 L 490.101 258.127 C 492.282 258.127 494.049 256.36 494.049 254.179 L 494.049 237.106 C 491.011 238.456 487.733 239.185 484.408 239.248 C 478.784 239.382 472.891 237.508 471.016 239.65 Z" style="fill: rgb(104, 109, 106);"/>
  <path class="cls-2" d="M 533.507 168.035 L 533.507 168.035 C 513.806 168.035 497.833 184.006 497.833 203.708 L 497.833 258.128 L 502.101 258.128 L 502.101 204.829 C 502.101 187.484 516.162 173.423 533.507 173.423 L 533.507 173.423 C 550.852 173.423 564.912 187.484 564.912 204.829 L 564.912 258.128 L 569.181 258.128 L 569.181 203.708 C 569.181 184.006 553.209 168.035 533.507 168.035 Z" style="fill: rgb(104, 109, 106);"/>
</svg>